<svg xmlns="http://www.w3.org/2000/svg" xmlns:xlink="http://www.w3.org/1999/xlink" xmlns:lucid="lucid" width="1200" height="1511"><g transform="translate(-20 -40)" lucid:page-tab-id="0_0"><path d="M1100 1026c0-3.3 2.7-6 6-6h28c3.3 0 6 2.7 6 6v428c0 3.3-2.7 6-6 6h-28c-3.3 0-6-2.7-6-6zM800 212c0-3.3 2.7-6 6-6h28c3.3 0 6 2.7 6 6v1222c0 3.3-2.7 6-6 6h-28c-3.3 0-6-2.7-6-6zM480 212c0-3.3 2.7-6 6-6h28c3.3 0 6 2.7 6 6v1222c0 3.3-2.7 6-6 6h-28c-3.3 0-6-2.7-6-6z" stroke="#5e5e5e" stroke-width="3" fill="#fff"/><path d="M60 346c0-3.3 2.7-6 6-6h88c3.3 0 6 2.7 6 6v8c0 3.3-1.9 7.9-4.24 10.24l-1.52 1.52C151.9 368.1 147.3 370 144 370H66c-3.3 0-6-2.7-6-6z" fill="#fff"/><path d="M160 340v20l-10 10H60" stroke="#5e5e5e" stroke-width="3" fill="none"/><path d="M60 346c0-3.3 2.7-6 6-6h848c3.3 0 6 2.7 6 6v208c0 3.3-2.7 6-6 6H66c-3.3 0-6-2.7-6-6zM60 450h20m15 0h20m15 0h20m15 0h20m15 0h20m15 0h20m15 0h20m15 0h20m15 0h20m15 0h20m15 0h20m15 0h20m15 0h20m15 0h20m15 0h20m15 0h20m15 0h20m15 0h20m15 0h20m15 0h20m15 0h20m15 0h20m15 0h20m15 0h20m15 0h20" stroke="#5e5e5e" stroke-width="3" fill="none"/><use xlink:href="#a" transform="matrix(1,0,0,1,68,340) translate(0 19.444444444444443)"/><use xlink:href="#b" transform="matrix(1,0,0,1,72,378) translate(0 19.444444444444443)"/><use xlink:href="#c" transform="matrix(1,0,0,1,72,378) translate(17.22222222222222 19.444444444444443)"/><use xlink:href="#d" transform="matrix(1,0,0,1,72,378) translate(66.54320987654322 19.444444444444443)"/><use xlink:href="#e" transform="matrix(1,0,0,1,72,378) translate(88.70370370370371 19.444444444444443)"/><use xlink:href="#f" transform="matrix(1,0,0,1,72,458) translate(0 19.444444444444443)"/><path d="M40 686c0-3.3 2.7-6 6-6h88c3.3 0 6 2.7 6 6v8c0 3.3-1.9 7.9-4.24 10.24l-1.52 1.52C131.9 708.1 127.3 710 124 710H46c-3.3 0-6-2.7-6-6z" fill="#fff"/><path d="M140 680v20l-10 10H40" stroke="#5e5e5e" stroke-width="3" fill="none"/><path d="M40 686c0-3.3 2.7-6 6-6h828c3.3 0 6 2.7 6 6v228c0 3.3-2.7 6-6 6H46c-3.3 0-6-2.7-6-6zM40 800h20m15 0h20m15 0h20m15 0h20m15 0h20m15 0h20m15 0h20m15 0h20m15 0h20m15 0h20m15 0h20m15 0h20m15 0h20m15 0h20m15 0h20m15 0h20m15 0h20m15 0h20m15 0h20m15 0h20m15 0h20m15 0h20m15 0h20m15 0h20" stroke="#5e5e5e" stroke-width="3" fill="none"/><use xlink:href="#a" transform="matrix(1,0,0,1,48,680) translate(0 19.444444444444443)"/><use xlink:href="#b" transform="matrix(1,0,0,1,52,718) translate(0 19.444444444444443)"/><use xlink:href="#g" transform="matrix(1,0,0,1,52,718) translate(17.22222222222222 19.444444444444443)"/><use xlink:href="#d" transform="matrix(1,0,0,1,52,718) translate(52.96296296296296 19.444444444444443)"/><use xlink:href="#e" transform="matrix(1,0,0,1,52,718) translate(75.12345679012346 19.444444444444443)"/><use xlink:href="#f" transform="matrix(1,0,0,1,52,808) translate(0 19.444444444444443)"/><path d="M100 1086c0-3.3 2.7-6 6-6h88c3.3 0 6 2.7 6 6v8c0 3.3-1.9 7.9-4.24 10.24l-1.52 1.52c-2.34 2.34-6.93 4.24-10.24 4.24h-78c-3.3 0-6-2.7-6-6z" fill="#fff"/><path d="M200 1080v20l-10 10h-90" stroke="#5e5e5e" stroke-width="3" fill="none"/><path d="M100 1086c0-3.3 2.7-6 6-6h1068c3.3 0 6 2.7 6 6v328c0 3.3-2.7 6-6 6H106c-3.3 0-6-2.7-6-6zM100 1250h20m15 0h20m15 0h20m15 0h20m15 0h20m15 0h20m15 0h20m15 0h20m15 0h20m15 0h20m15 0h20m15 0h20m15 0h20m15 0h20m15 0h20m15 0h20m15 0h20m15 0h20m15 0h20m15 0h20m15 0h20m15 0h20m15 0h20m15 0h20m15 0h20m15 0h20m15 0h20m15 0h20m15 0h20m15 0h20m15 0h20" stroke="#5e5e5e" stroke-width="3" fill="none"/><use xlink:href="#a" transform="matrix(1,0,0,1,108,1080) translate(0 19.444444444444443)"/><use xlink:href="#b" transform="matrix(1,0,0,1,112,1118) translate(0 19.444444444444443)"/><use xlink:href="#h" transform="matrix(1,0,0,1,112,1118) translate(17.22222222222222 19.444444444444443)"/><use xlink:href="#d" transform="matrix(1,0,0,1,112,1118) translate(66.60493827160494 19.444444444444443)"/><use xlink:href="#i" transform="matrix(1,0,0,1,112,1118) translate(88.76543209876543 19.444444444444443)"/><use xlink:href="#f" transform="matrix(1,0,0,1,112,1258) translate(0 19.444444444444443)"/><path d="M243 73c0 7.18-5.82 13-13 13s-13-5.82-13-13 5.82-13 13-13 13 5.82 13 13z" stroke="#5e5e5e" stroke-width="3" fill="#fff"/><path d="M230 86v30.4c0 3.3 1.57 8.18 3.5 10.87L260 164m-30-41.6L200 164m0-65h60" stroke="#5e5e5e" stroke-width="3" fill="none"/><path d="M200 66c0-3.3 2.7-6 6-6h48c3.3 0 6 2.7 6 6v114c0 3.3-2.7 6-6 6h-48c-3.3 0-6-2.7-6-6z" fill="none"/><use xlink:href="#j" transform="matrix(1,0,0,1,120,164) translate(52.09876543209877 17.77777777777778)"/><use xlink:href="#k" transform="matrix(1,0,0,1,120,164) translate(117.46913580246914 17.77777777777778)"/><path d="M230 125.96v4m0 8V146m0 8v8m0 8.02v8m0 8v8.02m0 8v8m0 8.02v8m0 8v8.02m0 8v8m0 8v8.02m0 8v8m0 8.02v8m0 8v8.02m0 8v8m0 8.02v8m0 8v8.02m0 8v8m0 8.02v8m0 8v8m0 8.02v8m0 8v8.02m0 8v8m0 8.02v8m0 8v8.02m0 8v8m0 8.02v8m0 8v8.02m0 8v8m0 8v8.02m0 8v8m0 8.02v8m0 8v8.02m0 8v8m0 8.02v8m0 8v8.02m0 8v8m0 8.02v8m0 8v8m0 8.02v8m0 8v8.02m0 8v8m0 8.02v8m0 8v8.02m0 8v8m0 8.02v8m0 8v8.02m0 8v8m0 8v8.02m0 8v8m0 8.02v8m0 8v8.02m0 8v8m0 8.02v8m0 8v8.02m0 8v8m0 8.02v8m0 8v8m0 8.02v8m0 8v8.02m0 8v8m0 8.02v8m0 8v8.02m0 8v8m0 8.02v8m0 8v8.02m0 8v8m0 8v8.02m0 8v8m0 8.02v8m0 8v8.02m0 8v8m0 8.02v8m0 8v8.02m0 8v8m0 8.02v8m0 8v8m0 8.02v8m0 8v8.02m0 8v8m0 8.02v8m0 8v8.02m0 8v8m0 8.02v4M230 126v-4.04M230 1438.97v1.03M231 276.1h250.5M231.03 276.1H230" stroke="#5e5e5e" stroke-width="2" fill="none"/><path d="M496.76 276.1l-14.26 4.62v-9.27z" stroke="#5e5e5e" stroke-width="2" fill="#5e5e5e"/><use xlink:href="#l" transform="matrix(1,0,0,1,319.64197530691905,250.75552209854843) translate(0 14.222222222222223)"/><use xlink:href="#m" transform="matrix(1,0,0,1,319.64197530691905,250.75552209854843) translate(53.23456790123458 14.222222222222223)"/><path d="M819 379.54h-10.02m-10 0h-20.05m-10 0h-20.05m-10 0h-20.05m-10 0h-20.05m-10 0h-20.05m-10 0h-20.05m-10 0h-20.05m-10 0h-20.05m-10 0h-20.04m-10.02 0H518.5M818.97 379.54H820" stroke="#5e5e5e" stroke-width="2" fill="none"/><path d="M503.24 379.54l14.26-4.63v9.28z" stroke="#5e5e5e" stroke-width="2" fill="#5e5e5e"/><use xlink:href="#n" transform="matrix(1,0,0,1,628.4444444444441,354.20900076277684) translate(0 14.222222222222223)"/><use xlink:href="#o" transform="matrix(1,0,0,1,628.4444444444441,354.20900076277684) translate(42.41975308641976 14.222222222222223)"/><path d="M499 424.67H248.5M498.97 424.67H500" stroke="#5e5e5e" stroke-width="2" fill="none"/><path d="M233.24 424.67l14.26-4.64v9.27z" stroke="#5e5e5e" stroke-width="2" fill="#5e5e5e"/><use xlink:href="#p" transform="matrix(1,0,0,1,314.28395061556336,399.33485888634544) translate(0 14.222222222222223)"/><use xlink:href="#q" transform="matrix(1,0,0,1,314.28395061556336,399.33485888634544) translate(74.8641975308642 14.222222222222223)"/><path d="M819 514.92h-10.02m-10 0h-20.05m-10 0h-20.05m-10 0h-20.05m-10 0h-20.05m-10 0h-20.05m-10 0h-20.05m-10 0h-20.05m-10 0h-20.05m-10 0h-20.04m-10.02 0H518.5M818.97 514.92H820" stroke="#5e5e5e" stroke-width="2" fill="none"/><path d="M503.24 514.92l14.26-4.64v9.28z" stroke="#5e5e5e" stroke-width="2" fill="#5e5e5e"/><use xlink:href="#n" transform="matrix(1,0,0,1,608.2222222222222,489.5865751334858) translate(0 14.222222222222223)"/><use xlink:href="#r" transform="matrix(1,0,0,1,608.2222222222222,489.5865751334858) translate(42.41975308641976 14.222222222222223)"/><path d="M499 537.48H248.5M498.97 537.48H500" stroke="#5e5e5e" stroke-width="2" fill="none"/><path d="M233.24 537.48l14.26-4.63v9.27z" stroke="#5e5e5e" stroke-width="2" fill="#5e5e5e"/><use xlink:href="#s" transform="matrix(1,0,0,1,322.58024691185966,512.1495041952699) translate(0 14.222222222222223)"/><use xlink:href="#m" transform="matrix(1,0,0,1,322.58024691185966,512.1495041952699) translate(47.35802469135803 14.222222222222223)"/><path d="M231 650.3h10.44m10.43 0h20.88m10.44 0h20.86m10.44 0h20.87m10.44 0h20.9m10.42 0H398m10.44 0h20.87m10.45 0h20.87m10.44 0h10.44M231.03 650.3H230" stroke="#5e5e5e" stroke-width="2" fill="none"/><path d="M496.76 650.3l-14.26 4.63v-9.27z" stroke="#5e5e5e" stroke-width="2" fill="#5e5e5e"/><use xlink:href="#t" transform="matrix(1,0,0,1,330.743703703827,624.9641495041936) translate(0 14.222222222222223)"/><use xlink:href="#u" transform="matrix(1,0,0,1,330.743703703827,624.9641495041936) translate(32.543209876543216 14.222222222222223)"/><path d="M501 672.86h300.5M501.03 672.86H500" stroke="#5e5e5e" stroke-width="2" fill="none"/><path d="M816.76 672.86l-14.26 4.64v-9.27z" stroke="#5e5e5e" stroke-width="2" fill="#5e5e5e"/><use xlink:href="#v" transform="matrix(1,0,0,1,620.5679012345679,647.5270785659801) translate(0 14.222222222222223)"/><use xlink:href="#q" transform="matrix(1,0,0,1,620.5679012345679,647.5270785659801) translate(52.296296296296305 14.222222222222223)"/><path d="M819 718h-10.02m-10 0h-20.05m-10 0h-20.05m-10 0h-20.05m-10 0h-20.05m-10 0h-20.05m-10 0h-20.05m-10 0h-20.05m-10 0h-20.05m-10 0h-20.04m-10.02 0H518.5M818.97 718H820" stroke="#5e5e5e" stroke-width="2" fill="none"/><path d="M503.24 718l14.26-4.65v9.27z" stroke="#5e5e5e" stroke-width="2" fill="#5e5e5e"/><use xlink:href="#w" transform="matrix(1,0,0,1,598.9382716049383,692.6529366895513) translate(0 14.222222222222223)"/><use xlink:href="#x" transform="matrix(1,0,0,1,598.9382716049383,692.6529366895513) translate(31.506172839506174 14.222222222222223)"/><path d="M499 740.55H248.5M498.97 740.55H500" stroke="#5e5e5e" stroke-width="2" fill="none"/><path d="M233.24 740.55l14.26-4.64v9.28z" stroke="#5e5e5e" stroke-width="2" fill="#5e5e5e"/><use xlink:href="#y" transform="matrix(1,0,0,1,315.10222222232943,715.215865751335) translate(0 14.222222222222223)"/><use xlink:href="#z" transform="matrix(1,0,0,1,315.10222222232943,715.215865751335) translate(95.55555555555557 14.222222222222223)"/><path d="M819 853.36h-10.02m-10 0h-20.05m-10 0h-20.05m-10 0h-20.05m-10 0h-20.05m-10 0h-20.05m-10 0h-20.05m-10 0h-20.05m-10 0h-20.05m-10 0h-20.04m-10.02 0H518.5M818.97 853.36H820" stroke="#5e5e5e" stroke-width="2" fill="none"/><path d="M503.24 853.36l14.26-4.63V858z" stroke="#5e5e5e" stroke-width="2" fill="#5e5e5e"/><use xlink:href="#w" transform="matrix(1,0,0,1,584.1481481481483,828.0305110602594) translate(0 14.222222222222223)"/><use xlink:href="#A" transform="matrix(1,0,0,1,584.1481481481483,828.0305110602594) translate(31.506172839506174 14.222222222222223)"/><path d="M499 898.5H248.5M498.97 898.5H500" stroke="#5e5e5e" stroke-width="2" fill="none"/><path d="M233.24 898.5l14.26-4.65v9.27z" stroke="#5e5e5e" stroke-width="2" fill="#5e5e5e"/><use xlink:href="#B" transform="matrix(1,0,0,1,323.5679012328473,873.1563691838289) translate(0 14.222222222222223)"/><use xlink:href="#m" transform="matrix(1,0,0,1,323.5679012328473,873.1563691838289) translate(45.38271604938272 14.222222222222223)"/><path d="M231 989.86h10.44m10.43 0h20.88m10.44 0h20.86m10.44 0h20.87m10.44 0h20.9m10.42 0H398m10.44 0h20.87m10.45 0h20.87m10.44 0h10.44M231.03 989.86H230" stroke="#5e5e5e" stroke-width="2" fill="none"/><path d="M496.76 989.86l-14.26 4.64v-9.27z" stroke="#5e5e5e" stroke-width="2" fill="#5e5e5e"/><use xlink:href="#C" transform="matrix(1,0,0,1,314.5497834436788,964.5276194667842) translate(0 14.222222222222223)"/><use xlink:href="#u" transform="matrix(1,0,0,1,314.5497834436788,964.5276194667842) translate(71.85185185185185 14.222222222222223)"/><path d="M821 1056.43h280.5M821.03 1056.43H820" stroke="#5e5e5e" stroke-width="2" fill="none"/><path d="M1116.76 1056.43l-14.26 4.64v-9.28z" stroke="#5e5e5e" stroke-width="2" fill="#5e5e5e"/><use xlink:href="#D" transform="matrix(1,0,0,1,896.1728395061729,1031.0968726163233) translate(0 14.222222222222223)"/><use xlink:href="#E" transform="matrix(1,0,0,1,896.1728395061729,1031.0968726163233) translate(83.70370370370372 14.222222222222223)"/><use xlink:href="#F" transform="matrix(1,0,0,1,896.1728395061729,1031.0968726163233) translate(136.83950617283952 14.222222222222223)"/><path d="M1119 1103.45h-10.4m-10.38 0h-20.78m-10.38 0h-20.78m-10.4 0h-20.77m-10.38 0h-20.77m-10.4 0H952.8m-10.4 0h-20.77m-10.38 0h-20.77m-10.4 0H859.3m-10.4 0H838.5M1118.97 1103.45h1.03" stroke="#5e5e5e" stroke-width="2" fill="none"/><path d="M823.24 1103.45l14.26-4.64v9.3z" stroke="#5e5e5e" stroke-width="2" fill="#5e5e5e"/><use xlink:href="#G" transform="matrix(1,0,0,1,930.1234567901234,1078.1165501165501) translate(0 14.222222222222223)"/><use xlink:href="#x" transform="matrix(1,0,0,1,930.1234567901234,1078.1165501165501) translate(53.135802469135804 14.222222222222223)"/><path d="M821 1148.67h280.5M821.03 1148.67H820" stroke="#5e5e5e" stroke-width="2" fill="none"/><path d="M1116.76 1148.67l-14.26 4.64v-9.26z" stroke="#5e5e5e" stroke-width="2" fill="#5e5e5e"/><use xlink:href="#H" transform="matrix(1,0,0,1,897.0864197530864,1123.3379953379954) translate(0 14.222222222222223)"/><use xlink:href="#z" transform="matrix(1,0,0,1,897.0864197530864,1123.3379953379954) translate(81.82716049382717 14.222222222222223)"/><path d="M1119 1193.9l-10.4-.1m-10.38-.06l-20.78-.14m-10.38-.08l-20.78-.14m-10.4-.07l-20.77-.14m-10.38-.07l-20.77-.15m-10.4-.08l-20.77-.14m-10.4-.07l-20.77-.15m-10.38-.06l-20.77-.14m-10.4-.07l-20.77-.15m-10.4-.07l-10.38-.06M1118.97 1193.9h1.03" stroke="#5e5e5e" stroke-width="2" fill="none"/><path d="M823.24 1191.83l14.3-4.54-.07 9.26z" stroke="#5e5e5e" stroke-width="2" fill="#5e5e5e"/><use xlink:href="#H" transform="matrix(1,0,0,1,887.4857968661017,1167.5317093083224) translate(0 14.222222222222223)"/><use xlink:href="#I" transform="matrix(1,0,0,1,887.4857968661017,1167.5317093083224) translate(81.82716049382717 14.222222222222223)"/><path d="M819 1215.37h-10.35v-2H819m-20.7 2h-20.7v-2h20.7m-31.05 2h-20.7v-2h20.7m-31.05 2h-20.7v-2h20.7m-31.05 2h-20.7v-2h20.7m-31.05 2h-20.7v-2h20.7m-31.05 2h-20.7v-2h20.7m-31.05 2h-20.7v-2H612m-31.05 2h-20.7v-2h20.7m-31.05 2h-20.7v-2h20.7m-31.05 2h-1.3v-2h1.3" fill="#5e5e5e"/><path d="M820 1215.37h-1.03v-2H820" fill="#5e5e5e"/><path fill="#5e5e5e"/><path fill="#5e5e5e"/><use xlink:href="#J" transform="matrix(1,0,0,1,533.2345679012345,1189.0373760488176) translate(0 14.222222222222223)"/><use xlink:href="#I" transform="matrix(1,0,0,1,533.2345679012345,1189.0373760488176) translate(100.49382716049382 14.222222222222223)"/><path d="M499 1237.93H248.5v-2H499" fill="#5e5e5e"/><path d="M500 1237.93h-1.03v-2H500M247.5 1241.57l-14.26-4.64 14.26-4.63z" fill="#5e5e5e"/><path d="M248.5 1242.95l-18.5-6.02 18.5-6m-12.03 6l10.03 3.26v-6.53" fill="#5e5e5e"/><use xlink:href="#K" transform="matrix(1,0,0,1,303.86419752914355,1211.6003051106027) translate(0 14.222222222222223)"/><use xlink:href="#L" transform="matrix(1,0,0,1,303.86419752914355,1211.6003051106027) translate(81.82716049382717 14.222222222222223)"/><path d="M1119 1284.33l-10.4-.08m-10.38-.08l-20.78-.16m-10.38-.07l-20.78-.15m-10.4-.08l-20.77-.16m-10.38-.08l-20.77-.16m-10.4-.08l-20.77-.15m-10.4-.08l-20.77-.17m-10.38-.08l-20.77-.16m-10.4-.08l-20.77-.16m-10.4-.08l-10.38-.08M1118.97 1284.33h1.03" stroke="#5e5e5e" stroke-width="2" fill="none"/><path d="M823.24 1282.08l14.3-4.52-.07 9.27z" stroke="#5e5e5e" stroke-width="2" fill="#5e5e5e"/><use xlink:href="#M" transform="matrix(1,0,0,1,911.014316177336,1257.873712152493) translate(0 14.222222222222223)"/><use xlink:href="#N" transform="matrix(1,0,0,1,911.014316177336,1257.873712152493) translate(84.64197530864197 14.222222222222223)"/><path d="M819 1304.62h-10.02m-10 0h-20.05m-10 0h-20.05m-10 0h-20.05m-10 0h-20.05m-10 0h-20.05m-10 0h-20.05m-10 0h-20.05m-10 0h-20.05m-10 0h-20.04m-10.02 0H518.5M818.97 1304.62H820" stroke="#5e5e5e" stroke-width="2" fill="none"/><path d="M503.24 1304.62l14.26-4.63v9.26z" stroke="#5e5e5e" stroke-width="2" fill="#5e5e5e"/><g><use xlink:href="#J" transform="matrix(1,0,0,1,533.6354393609296,1279.289092295957) translate(0 14.222222222222223)"/><use xlink:href="#O" transform="matrix(1,0,0,1,533.6354393609296,1279.289092295957) translate(100.49382716049382 14.222222222222223)"/></g><path d="M499 1396.97H248.5M498.97 1396.97H500" stroke="#5e5e5e" stroke-width="2" fill="none"/><path d="M233.24 1396.97l14.26-4.63v9.27z" stroke="#5e5e5e" stroke-width="2" fill="#5e5e5e"/><g><use xlink:href="#s" transform="matrix(1,0,0,1,321.12345678840285,1371.6384481527602) translate(0 14.222222222222223)"/><use xlink:href="#P" transform="matrix(1,0,0,1,321.12345678840285,1371.6384481527602) translate(47.35802469135803 14.222222222222223)"/></g><path d="M420 92c0-3.3 2.7-6 6-6h148c3.3 0 6 2.7 6 6v108c0 3.3-2.7 6-6 6H426c-3.3 0-6-2.7-6-6z" stroke="#5e5e5e" stroke-width="3" fill="#fff"/><g><use xlink:href="#Q" transform="matrix(1,0,0,1,420,86) translate(61.73 63.15)"/></g><path d="M740 92c0-3.3 2.7-6 6-6h148c3.3 0 6 2.7 6 6v108c0 3.3-2.7 6-6 6H746c-3.3 0-6-2.7-6-6z" stroke="#5e5e5e" stroke-width="3" fill="#fff"/><g><use xlink:href="#R" transform="matrix(1,0,0,1,740,86) translate(32.055 63.15)"/><use xlink:href="#S" transform="matrix(1,0,0,1,740,86) translate(78.055 63.15)"/></g><path d="M501 1501.5h-2v-10.03h2m0-10.02h-2v-20.04h2m0-10.02h-2v-20.04h2m0-10.03h-2v-20.03h2m0-10.03h-2v-20.04h2m0-10.03h-2v-20.04h2m0-10.03h-2v-20.04h2m0-10.03h-2V1281h2m0-10.04h-2v-20.04h2m0-10.03h-2v-19.55h2m0-21.33h-2v-9.24h2m0-10.03h-2v-20.04h2m0-10.02h-2v-20.04h2m0-10.03h-2v-20.03h2m0-10.02h-2v-20.05h2m0-10.02h-2v-20.05h2m0-10.02h-2v-20.04h2m0-10.02h-2V980.3h2m0-10.03h-2v-20.05h2m0-10.02h-2v-20.05h2m0-10.02h-2v-20.05h2m0-10.02h-2V860h2m0-10h-2v-20.06h2m0-10.02h-2v-20.05h2m0-10.02h-2V769.8h2m0-10.02h-2v-20.05h2m0-10.02h-2v-20.04h2m0-10.02h-2V679.6h2m0-10.03h-2v-20.05h2m0-10.02h-2v-20.05h2m0-10.02h-2v-20.05h2m0-10.02h-2V559.3h2m0-10h-2v-20.06h2m0-10.02h-2v-20.05h2m0-10.02h-2V469.1h2m0-10.02h-2v-20.05h2m0-10.02h-2v-20.04h2m0-10.02h-2V378.9h2m0-10.03h-2v-20.04h2m0-10.03h-2v-20.04h2m0-10.03h-2V288.7h2m0-10.04h-2v-20.04h2m0-10.03h-2v-20.05h2m0-10.03h-2V208.5h2" fill="#5e5e5e"/><path d="M501 208.53h-2v-1.03h2M500 1516.76l-4.64-14.26h9.28z" fill="#5e5e5e"/><path d="M500 1520l-6-18.5h12m-9.26 2l3.26 10.03 3.26-10.03" fill="#5e5e5e"/><g><use xlink:href="#T" transform="matrix(1,0,0,1,482.44444444444446,1200.0168513388733) translate(0 14.222222222222223)"/></g><path d="M501 300h300.5M501.03 300H500" stroke="#5e5e5e" stroke-width="2" fill="none"/><path d="M816.76 300l-14.26 4.64v-9.28z" stroke="#5e5e5e" stroke-width="2" fill="#5e5e5e"/><g><use xlink:href="#v" transform="matrix(1,0,0,1,615.1111111111111,274.6666666666635) translate(0 14.222222222222223)"/><use xlink:href="#m" transform="matrix(1,0,0,1,615.1111111111111,274.6666666666635) translate(52.296296296296305 14.222222222222223)"/></g><path d="M1040 92c0-3.3 2.7-6 6-6h148c3.3 0 6 2.7 6 6v108c0 3.3-2.7 6-6 6h-148c-3.3 0-6-2.7-6-6z" stroke="#5e5e5e" stroke-width="3" fill="#fff"/><g><use xlink:href="#R" transform="matrix(1,0,0,1,1040,86) translate(24.505000000000003 63.15)"/><use xlink:href="#U" transform="matrix(1,0,0,1,1040,86) translate(70.505 63.15)"/></g><path d="M820 208.5v10.02m0 10.03v20.04m0 10.02v20.04m0 10.03v20.03m0 10.03v20.04m0 10.03v20.04m0 10.03v20.04m0 10.02V429m0 10.03v20.05m0 10.02v20.05m0 10.02v20.05m0 10.02v20.05m0 10v20.06m0 10.02v20.05m0 10.02v20.05m0 10.02v20.05m0 10.02v20.04m0 10.02v20.05m0 10.03v20.05m0 10.02v20.05m0 10.02v20.05m0 10.02V850m0 10v20.06m0 10.02v20.05m0 10.02v20.05m0 10.02v20.05m0 10.02v20.04m0 10.02v20.05m0 10.03v20.05m0 10.02v20.05m0 10.02v20.04m0 10.04v20.04m0 10.03v20.05m0 10.03v20.04m0 10.03v20.04m0 10.02v20.04m0 10.03v20.03m0 10.03v20.04m0 10.03v20.04m0 10.03v20.04m0 10.03v20.04m0 10.04v20.04m0 10.03v20.05m0 10.02v10.03" stroke="#5e5e5e" stroke-width="2" fill="none"/><path d="M821 208.53h-2v-1.03h2" fill="#5e5e5e"/><path d="M820 1516.76l-4.64-14.26h9.28z" stroke="#5e5e5e" stroke-width="2" fill="#5e5e5e"/><path d="M1120 208.5v10.02m0 10.03v20.04m0 10.02v20.04m0 10.03v20.03m0 10.03v20.04m0 10.03v20.04m0 10.03v20.04m0 10.02V429m0 10.03v20.05m0 10.02v20.05m0 10.02v20.05m0 10.02v20.05m0 10v20.06m0 10.02v20.05m0 10.02v20.05m0 10.02v20.05m0 10.02v20.04m0 10.02v20.05m0 10.03v20.05m0 10.02v20.05m0 10.02v20.05m0 10.02V850m0 10v20.06m0 10.02v20.05m0 10.02v20.05m0 10.02v20.05m0 10.02v20.04m0 10.02v20.05m0 10.03v20.05m0 10.02v20.05m0 10.02v20.04m0 10.04v20.04m0 10.03v20.05m0 10.03v20.04m0 10.03v20.04m0 10.02v20.04m0 10.03v20.03m0 10.03v20.04m0 10.03v20.04m0 10.03v20.04m0 10.03v20.04m0 10.04v20.04m0 10.03v20.05m0 10.02v10.03" stroke="#5e5e5e" stroke-width="2" fill="none"/><path d="M1121 208.53h-2v-1.03h2" fill="#5e5e5e"/><path d="M1120 1516.76l-4.64-14.26h9.28z" stroke="#5e5e5e" stroke-width="2" fill="#5e5e5e"/><defs><path fill="#333" d="M205 0l-28-72H64L36 0H1l101-248h38L239 0h-34zm-38-99l-47-123c-12 45-31 82-46 123h93" id="V"/><path fill="#333" d="M24 0v-261h32V0H24" id="W"/><path fill="#333" d="M59-47c-2 24 18 29 38 22v24C64 9 27 4 27-40v-127H5v-23h24l9-43h21v43h35v23H59v120" id="X"/><path fill="#333" d="M100-194c63 0 86 42 84 106H49c0 40 14 67 53 68 26 1 43-12 49-29l28 8c-11 28-37 45-77 45C44 4 14-33 15-96c1-61 26-98 85-98zm52 81c6-60-76-77-97-28-3 7-6 17-6 28h103" id="Y"/><path fill="#333" d="M114-163C36-179 61-72 57 0H25l-1-190h30c1 12-1 29 2 39 6-27 23-49 58-41v29" id="Z"/><path fill="#333" d="M117-194c89-4 53 116 60 194h-32v-121c0-31-8-49-39-48C34-167 62-67 57 0H25l-1-190h30c1 10-1 24 2 32 11-22 29-35 61-36" id="aa"/><path fill="#333" d="M141-36C126-15 110 5 73 4 37 3 15-17 15-53c-1-64 63-63 125-63 3-35-9-54-41-54-24 1-41 7-42 31l-33-3c5-37 33-52 76-52 45 0 72 20 72 64v82c-1 20 7 32 28 27v20c-31 9-61-2-59-35zM48-53c0 20 12 33 32 33 41-3 63-29 60-74-43 2-92-5-92 41" id="ab"/><path fill="#333" d="M24-231v-30h32v30H24zM24 0v-190h32V0H24" id="ac"/><path fill="#333" d="M108 0H70L1-190h34L89-25l56-165h34" id="ad"/><g id="a"><use transform="matrix(0.06172839506172839,0,0,0.06172839506172839,0,0)" xlink:href="#V"/><use transform="matrix(0.06172839506172839,0,0,0.06172839506172839,14.814814814814813,0)" xlink:href="#W"/><use transform="matrix(0.06172839506172839,0,0,0.06172839506172839,19.691358024691354,0)" xlink:href="#X"/><use transform="matrix(0.06172839506172839,0,0,0.06172839506172839,25.864197530864192,0)" xlink:href="#Y"/><use transform="matrix(0.06172839506172839,0,0,0.06172839506172839,38.20987654320987,0)" xlink:href="#Z"/><use transform="matrix(0.06172839506172839,0,0,0.06172839506172839,45.55555555555555,0)" xlink:href="#aa"/><use transform="matrix(0.06172839506172839,0,0,0.06172839506172839,57.90123456790123,0)" xlink:href="#ab"/><use transform="matrix(0.06172839506172839,0,0,0.06172839506172839,70.24691358024691,0)" xlink:href="#X"/><use transform="matrix(0.06172839506172839,0,0,0.06172839506172839,76.41975308641975,0)" xlink:href="#ac"/><use transform="matrix(0.06172839506172839,0,0,0.06172839506172839,81.29629629629629,0)" xlink:href="#ad"/><use transform="matrix(0.06172839506172839,0,0,0.06172839506172839,92.4074074074074,0)" xlink:href="#Y"/></g><path fill="#333" d="M101-234c-31-9-42 10-38 44h38v23H63V0H32v-167H5v-23h27c-7-52 17-82 69-68v24" id="ae"/><g id="b"><use transform="matrix(0.06172839506172839,0,0,0.06172839506172839,0,0)" xlink:href="#ac"/><use transform="matrix(0.06172839506172839,0,0,0.06172839506172839,4.876543209876543,0)" xlink:href="#ae"/></g><path fill="#333" d="M96-169c-40 0-48 33-48 73s9 75 48 75c24 0 41-14 43-38l32 2c-6 37-31 61-74 61-59 0-76-41-82-99-10-93 101-131 147-64 4 7 5 14 7 22l-32 3c-4-21-16-35-41-35" id="af"/><path fill="#333" d="M85-194c31 0 48 13 60 33l-1-100h32l1 261h-30c-2-10 0-23-3-31C134-8 116 4 85 4 32 4 16-35 15-94c0-66 23-100 70-100zm9 24c-40 0-46 34-46 75 0 40 6 74 45 74 42 0 51-32 51-76 0-42-9-74-50-73" id="ag"/><g id="c"><use transform="matrix(0.06172839506172839,0,0,0.06172839506172839,0,0)" xlink:href="#af"/><use transform="matrix(0.06172839506172839,0,0,0.06172839506172839,11.11111111111111,0)" xlink:href="#ab"/><use transform="matrix(0.06172839506172839,0,0,0.06172839506172839,23.45679012345679,0)" xlink:href="#Z"/><use transform="matrix(0.06172839506172839,0,0,0.06172839506172839,30.80246913580247,0)" xlink:href="#ag"/></g><path fill="#333" d="M135-143c-3-34-86-38-87 0 15 53 115 12 119 90S17 21 10-45l28-5c4 36 97 45 98 0-10-56-113-15-118-90-4-57 82-63 122-42 12 7 21 19 24 35" id="ah"/><g id="d"><use transform="matrix(0.06172839506172839,0,0,0.06172839506172839,0,0)" xlink:href="#ac"/><use transform="matrix(0.06172839506172839,0,0,0.06172839506172839,4.876543209876543,0)" xlink:href="#ah"/></g><g id="e"><use transform="matrix(0.06172839506172839,0,0,0.06172839506172839,0,0)" xlink:href="#ad"/><use transform="matrix(0.06172839506172839,0,0,0.06172839506172839,11.11111111111111,0)" xlink:href="#ab"/><use transform="matrix(0.06172839506172839,0,0,0.06172839506172839,23.45679012345679,0)" xlink:href="#W"/><use transform="matrix(0.06172839506172839,0,0,0.06172839506172839,28.333333333333336,0)" xlink:href="#ac"/><use transform="matrix(0.06172839506172839,0,0,0.06172839506172839,33.20987654320988,0)" xlink:href="#ag"/></g><path fill="#333" d="M26 75v-336h71v23H56V52h41v23H26" id="ai"/><path fill="#333" d="M30 0v-248h187v28H63v79h144v27H63v87h162V0H30" id="aj"/><path fill="#333" d="M3 75V52h41v-290H3v-23h71V75H3" id="ak"/><g id="f"><use transform="matrix(0.06172839506172839,0,0,0.06172839506172839,0,0)" xlink:href="#ai"/><use transform="matrix(0.06172839506172839,0,0,0.06172839506172839,6.172839506172839,0)" xlink:href="#aj"/><use transform="matrix(0.06172839506172839,0,0,0.06172839506172839,20.98765432098765,0)" xlink:href="#W"/><use transform="matrix(0.06172839506172839,0,0,0.06172839506172839,25.864197530864196,0)" xlink:href="#ah"/><use transform="matrix(0.06172839506172839,0,0,0.06172839506172839,36.9753086419753,0)" xlink:href="#Y"/><use transform="matrix(0.06172839506172839,0,0,0.06172839506172839,49.32098765432098,0)" xlink:href="#ak"/></g><path fill="#333" d="M115-194c55 1 70 41 70 98S169 2 115 4C84 4 66-9 55-30l1 105H24l-1-265h31l2 30c10-21 28-34 59-34zm-8 174c40 0 45-34 45-75s-6-73-45-74c-42 0-51 32-51 76 0 43 10 73 51 73" id="al"/><g id="g"><use transform="matrix(0.06172839506172839,0,0,0.06172839506172839,0,0)" xlink:href="#al"/><use transform="matrix(0.06172839506172839,0,0,0.06172839506172839,12.345679012345679,0)" xlink:href="#ac"/><use transform="matrix(0.06172839506172839,0,0,0.06172839506172839,17.22222222222222,0)" xlink:href="#aa"/></g><path fill="#333" d="M84 4C-5 8 30-112 23-190h32v120c0 31 7 50 39 49 72-2 45-101 50-169h31l1 190h-30c-1-10 1-25-2-33-11 22-28 36-60 37" id="am"/><g id="h"><use transform="matrix(0.06172839506172839,0,0,0.06172839506172839,0,0)" xlink:href="#ae"/><use transform="matrix(0.06172839506172839,0,0,0.06172839506172839,6.172839506172839,0)" xlink:href="#am"/><use transform="matrix(0.06172839506172839,0,0,0.06172839506172839,18.51851851851852,0)" xlink:href="#aa"/><use transform="matrix(0.06172839506172839,0,0,0.06172839506172839,30.864197530864196,0)" xlink:href="#ag"/></g><g id="i"><use transform="matrix(0.06172839506172839,0,0,0.06172839506172839,0,0)" xlink:href="#ac"/><use transform="matrix(0.06172839506172839,0,0,0.06172839506172839,4.876543209876543,0)" xlink:href="#aa"/><use transform="matrix(0.06172839506172839,0,0,0.06172839506172839,17.22222222222222,0)" xlink:href="#ah"/><use transform="matrix(0.06172839506172839,0,0,0.06172839506172839,28.333333333333332,0)" xlink:href="#am"/><use transform="matrix(0.06172839506172839,0,0,0.06172839506172839,40.67901234567901,0)" xlink:href="#ae"/><use transform="matrix(0.06172839506172839,0,0,0.06172839506172839,46.41975308641975,0)" xlink:href="#ae"/><use transform="matrix(0.06172839506172839,0,0,0.06172839506172839,52.592592592592595,0)" xlink:href="#ac"/><use transform="matrix(0.06172839506172839,0,0,0.06172839506172839,57.46913580246914,0)" xlink:href="#af"/><use transform="matrix(0.06172839506172839,0,0,0.06172839506172839,68.58024691358025,0)" xlink:href="#ac"/><use transform="matrix(0.06172839506172839,0,0,0.06172839506172839,73.4567901234568,0)" xlink:href="#Y"/><use transform="matrix(0.06172839506172839,0,0,0.06172839506172839,85.80246913580248,0)" xlink:href="#aa"/><use transform="matrix(0.06172839506172839,0,0,0.06172839506172839,98.14814814814817,0)" xlink:href="#X"/></g><path fill="#333" d="M153-248C145-148 188 4 80 4 36 3 13-21 6-62l32-5c4 25 16 42 43 43 27 0 39-20 39-49v-147H72v-28h81" id="an"/><path fill="#333" d="M100-194c62-1 85 37 85 99 1 63-27 99-86 99S16-35 15-95c0-66 28-99 85-99zM99-20c44 1 53-31 53-75 0-43-8-75-51-75s-53 32-53 75 10 74 51 75" id="ao"/><path fill="#333" d="M24-231v-30h32v30H24zM-9 49c24 4 33-6 33-30v-209h32V24c2 40-23 58-65 49V49" id="ap"/><path fill="#333" d="M68-38c1 34 0 65-14 84H32c9-13 17-26 17-46H33v-38h35" id="aq"/><g id="j"><use transform="matrix(0.06172839506172839,0,0,0.06172839506172839,0,0)" xlink:href="#an"/><use transform="matrix(0.06172839506172839,0,0,0.06172839506172839,11.11111111111111,0)" xlink:href="#ao"/><use transform="matrix(0.06172839506172839,0,0,0.06172839506172839,23.45679012345679,0)" xlink:href="#ap"/><use transform="matrix(0.06172839506172839,0,0,0.06172839506172839,28.333333333333336,0)" xlink:href="#ab"/><use transform="matrix(0.06172839506172839,0,0,0.06172839506172839,40.67901234567901,0)" xlink:href="#aa"/><use transform="matrix(0.06172839506172839,0,0,0.06172839506172839,53.02469135802469,0)" xlink:href="#aq"/></g><path fill="#333" d="M190 0L58-211 59 0H30v-248h39L202-35l-2-213h31V0h-41" id="ar"/><g id="k"><use transform="matrix(0.06172839506172839,0,0,0.06172839506172839,0,0)" xlink:href="#ar"/><use transform="matrix(0.06172839506172839,0,0,0.06172839506172839,15.987654320987653,0)" xlink:href="#ab"/><use transform="matrix(0.06172839506172839,0,0,0.06172839506172839,28.333333333333332,0)" xlink:href="#W"/><use transform="matrix(0.06172839506172839,0,0,0.06172839506172839,33.20987654320987,0)" xlink:href="#ac"/><use transform="matrix(0.06172839506172839,0,0,0.06172839506172839,38.08641975308642,0)" xlink:href="#aa"/></g><path fill="#333" d="M24 0v-248h52V0H24" id="as"/><path fill="#333" d="M135-194c87-1 58 113 63 194h-50c-7-57 23-157-34-157-59 0-34 97-39 157H25l-1-190h47c2 12-1 28 3 38 12-26 28-41 61-42" id="at"/><path fill="#333" d="M137-138c1-29-70-34-71-4 15 46 118 7 119 86 1 83-164 76-172 9l43-7c4 19 20 25 44 25 33 8 57-30 24-41C81-84 22-81 20-136c-2-80 154-74 161-7" id="au"/><path fill="#333" d="M185-48c-13 30-37 53-82 52C43 2 14-33 14-96s30-98 90-98c62 0 83 45 84 108H66c0 31 8 55 39 56 18 0 30-7 34-22zm-45-69c5-46-57-63-70-21-2 6-4 13-4 21h74" id="av"/><path fill="#333" d="M135-150c-39-12-60 13-60 57V0H25l-1-190h47c2 13-1 29 3 40 6-28 27-53 61-41v41" id="aw"/><path fill="#333" d="M115-3C79 11 28 4 28-45v-112H4v-33h27l15-45h31v45h36v33H77v99c-1 23 16 31 38 25v30" id="ax"/><g id="l"><use transform="matrix(0.04938271604938272,0,0,0.04938271604938272,0,0)" xlink:href="#as"/><use transform="matrix(0.04938271604938272,0,0,0.04938271604938272,4.938271604938272,0)" xlink:href="#at"/><use transform="matrix(0.04938271604938272,0,0,0.04938271604938272,15.753086419753087,0)" xlink:href="#au"/><use transform="matrix(0.04938271604938272,0,0,0.04938271604938272,25.629629629629633,0)" xlink:href="#av"/><use transform="matrix(0.04938271604938272,0,0,0.04938271604938272,35.50617283950618,0)" xlink:href="#aw"/><use transform="matrix(0.04938271604938272,0,0,0.04938271604938272,42.41975308641976,0)" xlink:href="#ax"/></g><path fill="#333" d="M190-63c-7 42-38 67-86 67-59 0-84-38-90-98-12-110 154-137 174-36l-49 2c-2-19-15-32-35-32-30 0-35 28-38 64-6 74 65 87 74 30" id="ay"/><path fill="#333" d="M133-34C117-15 103 5 69 4 32 3 11-16 11-54c-1-60 55-63 116-61 1-26-3-47-28-47-18 1-26 9-28 27l-52-2c7-38 36-58 82-57s74 22 75 68l1 82c-1 14 12 18 25 15v27c-30 8-71 5-69-32zm-48 3c29 0 43-24 42-57-32 0-66-3-65 30 0 17 8 27 23 27" id="az"/><path fill="#333" d="M88-194c31-1 46 15 58 34l-1-101h50l1 261h-48c-2-10 0-23-3-31C134-8 116 4 84 4 32 4 16-41 15-95c0-56 19-97 73-99zm17 164c33 0 40-30 41-66 1-37-9-64-41-64s-38 30-39 65c0 43 13 65 39 65" id="aA"/><g id="m"><use transform="matrix(0.04938271604938272,0,0,0.04938271604938272,0,0)" xlink:href="#ay"/><use transform="matrix(0.04938271604938272,0,0,0.04938271604938272,9.876543209876544,0)" xlink:href="#az"/><use transform="matrix(0.04938271604938272,0,0,0.04938271604938272,19.75308641975309,0)" xlink:href="#aw"/><use transform="matrix(0.04938271604938272,0,0,0.04938271604938272,26.666666666666668,0)" xlink:href="#aA"/></g><g id="n"><use transform="matrix(0.04938271604938272,0,0,0.04938271604938272,0,0)" xlink:href="#ay"/><use transform="matrix(0.04938271604938272,0,0,0.04938271604938272,9.876543209876544,0)" xlink:href="#az"/><use transform="matrix(0.04938271604938272,0,0,0.04938271604938272,19.75308641975309,0)" xlink:href="#aw"/><use transform="matrix(0.04938271604938272,0,0,0.04938271604938272,26.666666666666668,0)" xlink:href="#aA"/></g><path fill="#333" d="M110-194c64 0 96 36 96 99 0 64-35 99-97 99-61 0-95-36-95-99 0-62 34-99 96-99zm-1 164c35 0 45-28 45-65 0-40-10-65-43-65-34 0-45 26-45 65 0 36 10 65 43 65" id="aB"/><path fill="#333" d="M147 0L96-86 75-71V0H25v-261h50v150l67-79h53l-66 74L201 0h-54" id="aC"/><g id="o"><use transform="matrix(0.04938271604938272,0,0,0.04938271604938272,0,0)" xlink:href="#aB"/><use transform="matrix(0.04938271604938272,0,0,0.04938271604938272,10.814814814814815,0)" xlink:href="#aC"/></g><path fill="#333" d="M240-174c0 40-23 61-54 70L253 0h-59l-57-94H76V0H24v-248c93 4 217-23 216 74zM76-134c48-2 112 12 112-38 0-48-66-32-112-35v73" id="aD"/><path fill="#333" d="M84 4C32 4 15-41 15-95c0-55 18-99 73-99 29 0 47 12 58 34l2-30h48l-1 265h-49V-32C136-9 114 4 84 4zm21-34c32 0 41-29 41-66 0-36-9-64-40-64-33 0-39 30-40 65 0 43 13 65 39 65" id="aE"/><path fill="#333" d="M85 4C-2 5 27-109 22-190h50c7 57-23 150 33 157 60-5 35-97 40-157h50l1 190h-47c-2-12 1-28-3-38-12 25-28 42-61 42" id="aF"/><g id="p"><use transform="matrix(0.04938271604938272,0,0,0.04938271604938272,0,0)" xlink:href="#aD"/><use transform="matrix(0.04938271604938272,0,0,0.04938271604938272,12.790123456790125,0)" xlink:href="#av"/><use transform="matrix(0.04938271604938272,0,0,0.04938271604938272,22.66666666666667,0)" xlink:href="#aE"/><use transform="matrix(0.04938271604938272,0,0,0.04938271604938272,33.48148148148149,0)" xlink:href="#aF"/><use transform="matrix(0.04938271604938272,0,0,0.04938271604938272,44.296296296296305,0)" xlink:href="#av"/><use transform="matrix(0.04938271604938272,0,0,0.04938271604938272,54.17283950617284,0)" xlink:href="#au"/><use transform="matrix(0.04938271604938272,0,0,0.04938271604938272,64.0493827160494,0)" xlink:href="#ax"/></g><path fill="#333" d="M135-194c53 0 70 44 70 98 0 56-19 98-73 100-31 1-45-17-59-34 3 33 2 69 2 105H25l-1-265h48c2 10 0 23 3 31 11-24 29-35 60-35zM114-30c33 0 39-31 40-66 0-38-9-64-40-64-56 0-55 130 0 130" id="aG"/><path fill="#333" d="M25-224v-37h50v37H25zM25 0v-190h50V0H25" id="aH"/><g id="q"><use transform="matrix(0.04938271604938272,0,0,0.04938271604938272,0,0)" xlink:href="#aG"/><use transform="matrix(0.04938271604938272,0,0,0.04938271604938272,10.814814814814815,0)" xlink:href="#aH"/><use transform="matrix(0.04938271604938272,0,0,0.04938271604938272,15.753086419753087,0)" xlink:href="#at"/></g><path fill="#333" d="M25 0v-261h50V0H25" id="aI"/><path fill="#333" d="M128 0H69L1-190h53L99-40l48-150h52" id="aJ"/><g id="r"><use transform="matrix(0.04938271604938272,0,0,0.04938271604938272,0,0)" xlink:href="#aI"/><use transform="matrix(0.04938271604938272,0,0,0.04938271604938272,4.938271604938272,0)" xlink:href="#aH"/><use transform="matrix(0.04938271604938272,0,0,0.04938271604938272,9.876543209876544,0)" xlink:href="#at"/><use transform="matrix(0.04938271604938272,0,0,0.04938271604938272,20.69135802469136,0)" xlink:href="#aJ"/><use transform="matrix(0.04938271604938272,0,0,0.04938271604938272,30.567901234567906,0)" xlink:href="#az"/><use transform="matrix(0.04938271604938272,0,0,0.04938271604938272,40.44444444444445,0)" xlink:href="#aI"/><use transform="matrix(0.04938271604938272,0,0,0.04938271604938272,45.38271604938272,0)" xlink:href="#aH"/><use transform="matrix(0.04938271604938272,0,0,0.04938271604938272,50.320987654320994,0)" xlink:href="#aA"/></g><path fill="#333" d="M24 0v-248h195v40H76v63h132v40H76v65h150V0H24" id="aK"/><path fill="#333" d="M25-224v-37h50v37H25zM75 22c2 45-34 59-81 51V38c22 5 31-5 31-27v-201h50V22" id="aL"/><g id="s"><use transform="matrix(0.04938271604938272,0,0,0.04938271604938272,0,0)" xlink:href="#aK"/><use transform="matrix(0.04938271604938272,0,0,0.04938271604938272,11.851851851851853,0)" xlink:href="#aL"/><use transform="matrix(0.04938271604938272,0,0,0.04938271604938272,16.790123456790127,0)" xlink:href="#av"/><use transform="matrix(0.04938271604938272,0,0,0.04938271604938272,26.666666666666668,0)" xlink:href="#ay"/><use transform="matrix(0.04938271604938272,0,0,0.04938271604938272,36.543209876543216,0)" xlink:href="#ax"/></g><path fill="#333" d="M24-248c93 1 206-16 204 79-1 75-69 88-152 82V0H24v-248zm52 121c47 0 100 7 100-41 0-47-54-39-100-39v80" id="aM"/><g id="t"><use transform="matrix(0.04938271604938272,0,0,0.04938271604938272,0,0)" xlink:href="#aM"/><use transform="matrix(0.04938271604938272,0,0,0.04938271604938272,11.851851851851853,0)" xlink:href="#aH"/><use transform="matrix(0.04938271604938272,0,0,0.04938271604938272,16.790123456790127,0)" xlink:href="#at"/></g><g id="u"><use transform="matrix(0.04938271604938272,0,0,0.04938271604938272,0,0)" xlink:href="#av"/><use transform="matrix(0.04938271604938272,0,0,0.04938271604938272,9.876543209876544,0)" xlink:href="#at"/><use transform="matrix(0.04938271604938272,0,0,0.04938271604938272,20.69135802469136,0)" xlink:href="#ax"/><use transform="matrix(0.04938271604938272,0,0,0.04938271604938272,26.567901234567902,0)" xlink:href="#av"/><use transform="matrix(0.04938271604938272,0,0,0.04938271604938272,36.44444444444445,0)" xlink:href="#aw"/><use transform="matrix(0.04938271604938272,0,0,0.04938271604938272,43.35802469135803,0)" xlink:href="#av"/><use transform="matrix(0.04938271604938272,0,0,0.04938271604938272,53.23456790123457,0)" xlink:href="#aA"/></g><path fill="#333" d="M121-226c-27-7-43 5-38 36h38v33H83V0H34v-157H6v-33h28c-9-59 32-81 87-68v32" id="aN"/><path fill="#333" d="M123 10C108 53 80 86 19 72V37c35 8 53-11 59-39L3-190h52l48 148c12-52 28-100 44-148h51" id="aO"/><g id="v"><use transform="matrix(0.04938271604938272,0,0,0.04938271604938272,0,0)" xlink:href="#aJ"/><use transform="matrix(0.04938271604938272,0,0,0.04938271604938272,9.876543209876544,0)" xlink:href="#av"/><use transform="matrix(0.04938271604938272,0,0,0.04938271604938272,19.75308641975309,0)" xlink:href="#aw"/><use transform="matrix(0.04938271604938272,0,0,0.04938271604938272,26.666666666666668,0)" xlink:href="#aH"/><use transform="matrix(0.04938271604938272,0,0,0.04938271604938272,31.60493827160494,0)" xlink:href="#aN"/><use transform="matrix(0.04938271604938272,0,0,0.04938271604938272,37.48148148148149,0)" xlink:href="#aO"/></g><g id="w"><use transform="matrix(0.04938271604938272,0,0,0.04938271604938272,0,0)" xlink:href="#aG"/><use transform="matrix(0.04938271604938272,0,0,0.04938271604938272,10.814814814814815,0)" xlink:href="#aH"/><use transform="matrix(0.04938271604938272,0,0,0.04938271604938272,15.753086419753087,0)" xlink:href="#at"/></g><path fill="#333" d="M140-251c80 0 125 45 125 126S219 4 139 4C58 4 15-44 15-125s44-126 125-126zm-1 214c52 0 73-35 73-88 0-50-21-86-72-86-52 0-73 35-73 86s22 88 72 88" id="aP"/><path fill="#333" d="M195 0l-88-114-31 24V0H24v-248h52v113l112-113h60L142-143 257 0h-62" id="aQ"/><g id="x"><use transform="matrix(0.04938271604938272,0,0,0.04938271604938272,0,0)" xlink:href="#aP"/><use transform="matrix(0.04938271604938272,0,0,0.04938271604938272,13.827160493827162,0)" xlink:href="#aQ"/></g><g id="y"><use transform="matrix(0.04938271604938272,0,0,0.04938271604938272,0,0)" xlink:href="#aD"/><use transform="matrix(0.04938271604938272,0,0,0.04938271604938272,12.790123456790125,0)" xlink:href="#av"/><use transform="matrix(0.04938271604938272,0,0,0.04938271604938272,22.66666666666667,0)" xlink:href="#aE"/><use transform="matrix(0.04938271604938272,0,0,0.04938271604938272,33.48148148148149,0)" xlink:href="#aF"/><use transform="matrix(0.04938271604938272,0,0,0.04938271604938272,44.296296296296305,0)" xlink:href="#av"/><use transform="matrix(0.04938271604938272,0,0,0.04938271604938272,54.17283950617284,0)" xlink:href="#au"/><use transform="matrix(0.04938271604938272,0,0,0.04938271604938272,64.0493827160494,0)" xlink:href="#ax"/><use transform="matrix(0.04938271604938272,0,0,0.04938271604938272,69.92592592592594,0)" xlink:href="#av"/><use transform="matrix(0.04938271604938272,0,0,0.04938271604938272,79.80246913580248,0)" xlink:href="#aA"/></g><path fill="#333" d="M220-157c-53 9-28 100-34 157h-49v-107c1-27-5-49-29-50C55-147 81-57 75 0H25l-1-190h47c2 12-1 28 3 38 10-53 101-56 108 0 13-22 24-43 59-42 82 1 51 116 57 194h-49v-107c-1-25-5-48-29-50" id="aR"/><g id="z"><use transform="matrix(0.04938271604938272,0,0,0.04938271604938272,0,0)" xlink:href="#az"/><use transform="matrix(0.04938271604938272,0,0,0.04938271604938272,9.876543209876544,0)" xlink:href="#aR"/><use transform="matrix(0.04938271604938272,0,0,0.04938271604938272,25.679012345679016,0)" xlink:href="#aB"/><use transform="matrix(0.04938271604938272,0,0,0.04938271604938272,36.49382716049383,0)" xlink:href="#aF"/><use transform="matrix(0.04938271604938272,0,0,0.04938271604938272,47.308641975308646,0)" xlink:href="#at"/><use transform="matrix(0.04938271604938272,0,0,0.04938271604938272,58.12345679012346,0)" xlink:href="#ax"/></g><g id="A"><use transform="matrix(0.04938271604938272,0,0,0.04938271604938272,0,0)" xlink:href="#aH"/><use transform="matrix(0.04938271604938272,0,0,0.04938271604938272,4.938271604938272,0)" xlink:href="#at"/><use transform="matrix(0.04938271604938272,0,0,0.04938271604938272,15.753086419753087,0)" xlink:href="#aJ"/><use transform="matrix(0.04938271604938272,0,0,0.04938271604938272,25.629629629629633,0)" xlink:href="#az"/><use transform="matrix(0.04938271604938272,0,0,0.04938271604938272,35.50617283950618,0)" xlink:href="#aI"/><use transform="matrix(0.04938271604938272,0,0,0.04938271604938272,40.44444444444445,0)" xlink:href="#aH"/><use transform="matrix(0.04938271604938272,0,0,0.04938271604938272,45.38271604938272,0)" xlink:href="#aA"/></g><g id="B"><use transform="matrix(0.04938271604938272,0,0,0.04938271604938272,0,0)" xlink:href="#av"/><use transform="matrix(0.04938271604938272,0,0,0.04938271604938272,9.876543209876544,0)" xlink:href="#aL"/><use transform="matrix(0.04938271604938272,0,0,0.04938271604938272,14.814814814814817,0)" xlink:href="#av"/><use transform="matrix(0.04938271604938272,0,0,0.04938271604938272,24.69135802469136,0)" xlink:href="#ay"/><use transform="matrix(0.04938271604938272,0,0,0.04938271604938272,34.567901234567906,0)" xlink:href="#ax"/></g><path fill="#333" d="M199 0l-22-63H83L61 0H9l90-248h61L250 0h-51zm-33-102l-36-108c-10 38-24 72-36 108h72" id="aS"/><g id="C"><use transform="matrix(0.04938271604938272,0,0,0.04938271604938272,0,0)" xlink:href="#aS"/><use transform="matrix(0.04938271604938272,0,0,0.04938271604938272,12.790123456790125,0)" xlink:href="#aR"/><use transform="matrix(0.04938271604938272,0,0,0.04938271604938272,28.592592592592595,0)" xlink:href="#aB"/><use transform="matrix(0.04938271604938272,0,0,0.04938271604938272,39.40740740740741,0)" xlink:href="#aF"/><use transform="matrix(0.04938271604938272,0,0,0.04938271604938272,50.22222222222223,0)" xlink:href="#at"/><use transform="matrix(0.04938271604938272,0,0,0.04938271604938272,61.037037037037045,0)" xlink:href="#ax"/></g><g id="D"><use transform="matrix(0.04938271604938272,0,0,0.04938271604938272,0,0)" xlink:href="#au"/><use transform="matrix(0.04938271604938272,0,0,0.04938271604938272,9.876543209876544,0)" xlink:href="#aF"/><use transform="matrix(0.04938271604938272,0,0,0.04938271604938272,20.69135802469136,0)" xlink:href="#aN"/><use transform="matrix(0.04938271604938272,0,0,0.04938271604938272,26.567901234567902,0)" xlink:href="#aN"/><use transform="matrix(0.04938271604938272,0,0,0.04938271604938272,32.44444444444445,0)" xlink:href="#aH"/><use transform="matrix(0.04938271604938272,0,0,0.04938271604938272,37.38271604938272,0)" xlink:href="#ay"/><use transform="matrix(0.04938271604938272,0,0,0.04938271604938272,47.25925925925927,0)" xlink:href="#aH"/><use transform="matrix(0.04938271604938272,0,0,0.04938271604938272,52.19753086419754,0)" xlink:href="#av"/><use transform="matrix(0.04938271604938272,0,0,0.04938271604938272,62.074074074074076,0)" xlink:href="#at"/><use transform="matrix(0.04938271604938272,0,0,0.04938271604938272,72.8888888888889,0)" xlink:href="#ax"/></g><g id="E"><use transform="matrix(0.04938271604938272,0,0,0.04938271604938272,0,0)" xlink:href="#aN"/><use transform="matrix(0.04938271604938272,0,0,0.04938271604938272,5.8765432098765435,0)" xlink:href="#aF"/><use transform="matrix(0.04938271604938272,0,0,0.04938271604938272,16.691358024691358,0)" xlink:href="#at"/><use transform="matrix(0.04938271604938272,0,0,0.04938271604938272,27.50617283950617,0)" xlink:href="#aA"/><use transform="matrix(0.04938271604938272,0,0,0.04938271604938272,38.32098765432099,0)" xlink:href="#au"/></g><path fill="#333" d="M110-251c83-7 118 89 53 130-17 10-36 21-38 46H78c2-56 65-53 71-103 2-21-15-35-38-34-25 1-41 14-44 38l-50-2c6-48 39-70 93-75zM77 0v-47h51V0H77" id="aT"/><use transform="matrix(0.04938271604938272,0,0,0.04938271604938272,0,0)" xlink:href="#aT" id="F"/><g id="G"><use transform="matrix(0.04938271604938272,0,0,0.04938271604938272,0,0)" xlink:href="#aN"/><use transform="matrix(0.04938271604938272,0,0,0.04938271604938272,5.8765432098765435,0)" xlink:href="#aF"/><use transform="matrix(0.04938271604938272,0,0,0.04938271604938272,16.691358024691358,0)" xlink:href="#at"/><use transform="matrix(0.04938271604938272,0,0,0.04938271604938272,27.50617283950617,0)" xlink:href="#aA"/><use transform="matrix(0.04938271604938272,0,0,0.04938271604938272,38.32098765432099,0)" xlink:href="#au"/></g><path fill="#333" d="M231 0h-52l-39-155L100 0H48L-1-190h46L77-45c9-52 24-97 36-145h53l37 145 32-145h46" id="aU"/><path fill="#333" d="M114-157C55-157 80-60 75 0H25v-261h50l-1 109c12-26 28-41 61-42 86-1 58 113 63 194h-50c-7-57 23-157-34-157" id="aV"/><g id="H"><use transform="matrix(0.04938271604938272,0,0,0.04938271604938272,0,0)" xlink:href="#aU"/><use transform="matrix(0.04938271604938272,0,0,0.04938271604938272,13.827160493827162,0)" xlink:href="#aH"/><use transform="matrix(0.04938271604938272,0,0,0.04938271604938272,18.765432098765434,0)" xlink:href="#ax"/><use transform="matrix(0.04938271604938272,0,0,0.04938271604938272,24.641975308641978,0)" xlink:href="#aV"/><use transform="matrix(0.04938271604938272,0,0,0.04938271604938272,35.45679012345679,0)" xlink:href="#aA"/><use transform="matrix(0.04938271604938272,0,0,0.04938271604938272,46.27160493827161,0)" xlink:href="#aw"/><use transform="matrix(0.04938271604938272,0,0,0.04938271604938272,53.18518518518519,0)" xlink:href="#az"/><use transform="matrix(0.04938271604938272,0,0,0.04938271604938272,63.061728395061735,0)" xlink:href="#aU"/></g><g id="I"><use transform="matrix(0.04938271604938272,0,0,0.04938271604938272,0,0)" xlink:href="#au"/><use transform="matrix(0.04938271604938272,0,0,0.04938271604938272,9.876543209876544,0)" xlink:href="#aF"/><use transform="matrix(0.04938271604938272,0,0,0.04938271604938272,20.69135802469136,0)" xlink:href="#ay"/><use transform="matrix(0.04938271604938272,0,0,0.04938271604938272,30.567901234567906,0)" xlink:href="#ay"/><use transform="matrix(0.04938271604938272,0,0,0.04938271604938272,40.44444444444445,0)" xlink:href="#av"/><use transform="matrix(0.04938271604938272,0,0,0.04938271604938272,50.320987654320994,0)" xlink:href="#au"/><use transform="matrix(0.04938271604938272,0,0,0.04938271604938272,60.19753086419754,0)" xlink:href="#au"/><use transform="matrix(0.04938271604938272,0,0,0.04938271604938272,70.07407407407408,0)" xlink:href="#aN"/><use transform="matrix(0.04938271604938272,0,0,0.04938271604938272,75.95061728395062,0)" xlink:href="#aF"/><use transform="matrix(0.04938271604938272,0,0,0.04938271604938272,86.76543209876543,0)" xlink:href="#aI"/></g><g id="J"><use transform="matrix(0.04938271604938272,0,0,0.04938271604938272,0,0)" xlink:href="#ax"/><use transform="matrix(0.04938271604938272,0,0,0.04938271604938272,5.8765432098765435,0)" xlink:href="#aw"/><use transform="matrix(0.04938271604938272,0,0,0.04938271604938272,12.790123456790125,0)" xlink:href="#az"/><use transform="matrix(0.04938271604938272,0,0,0.04938271604938272,22.666666666666668,0)" xlink:href="#at"/><use transform="matrix(0.04938271604938272,0,0,0.04938271604938272,33.48148148148148,0)" xlink:href="#au"/><use transform="matrix(0.04938271604938272,0,0,0.04938271604938272,43.358024691358025,0)" xlink:href="#az"/><use transform="matrix(0.04938271604938272,0,0,0.04938271604938272,53.23456790123457,0)" xlink:href="#ay"/><use transform="matrix(0.04938271604938272,0,0,0.04938271604938272,63.111111111111114,0)" xlink:href="#ax"/><use transform="matrix(0.04938271604938272,0,0,0.04938271604938272,68.98765432098766,0)" xlink:href="#aH"/><use transform="matrix(0.04938271604938272,0,0,0.04938271604938272,73.92592592592592,0)" xlink:href="#aB"/><use transform="matrix(0.04938271604938272,0,0,0.04938271604938272,84.74074074074073,0)" xlink:href="#at"/></g><g id="K"><use transform="matrix(0.04938271604938272,0,0,0.04938271604938272,0,0)" xlink:href="#aA"/><use transform="matrix(0.04938271604938272,0,0,0.04938271604938272,10.814814814814815,0)" xlink:href="#aH"/><use transform="matrix(0.04938271604938272,0,0,0.04938271604938272,15.753086419753087,0)" xlink:href="#au"/><use transform="matrix(0.04938271604938272,0,0,0.04938271604938272,25.629629629629633,0)" xlink:href="#aG"/><use transform="matrix(0.04938271604938272,0,0,0.04938271604938272,36.44444444444445,0)" xlink:href="#av"/><use transform="matrix(0.04938271604938272,0,0,0.04938271604938272,46.320987654320994,0)" xlink:href="#at"/><use transform="matrix(0.04938271604938272,0,0,0.04938271604938272,57.135802469135804,0)" xlink:href="#au"/><use transform="matrix(0.04938271604938272,0,0,0.04938271604938272,67.01234567901236,0)" xlink:href="#av"/></g><g id="L"><use transform="matrix(0.04938271604938272,0,0,0.04938271604938272,0,0)" xlink:href="#ay"/><use transform="matrix(0.04938271604938272,0,0,0.04938271604938272,9.876543209876544,0)" xlink:href="#az"/><use transform="matrix(0.04938271604938272,0,0,0.04938271604938272,19.75308641975309,0)" xlink:href="#au"/><use transform="matrix(0.04938271604938272,0,0,0.04938271604938272,29.629629629629633,0)" xlink:href="#aV"/></g><g id="M"><use transform="matrix(0.04938271604938272,0,0,0.04938271604938272,0,0)" xlink:href="#aH"/><use transform="matrix(0.04938271604938272,0,0,0.04938271604938272,4.938271604938272,0)" xlink:href="#at"/><use transform="matrix(0.04938271604938272,0,0,0.04938271604938272,15.753086419753087,0)" xlink:href="#au"/><use transform="matrix(0.04938271604938272,0,0,0.04938271604938272,25.629629629629633,0)" xlink:href="#aF"/><use transform="matrix(0.04938271604938272,0,0,0.04938271604938272,36.44444444444445,0)" xlink:href="#aN"/><use transform="matrix(0.04938271604938272,0,0,0.04938271604938272,42.320987654320994,0)" xlink:href="#aN"/><use transform="matrix(0.04938271604938272,0,0,0.04938271604938272,48.19753086419754,0)" xlink:href="#aH"/><use transform="matrix(0.04938271604938272,0,0,0.04938271604938272,53.135802469135804,0)" xlink:href="#av"/><use transform="matrix(0.04938271604938272,0,0,0.04938271604938272,63.01234567901235,0)" xlink:href="#at"/><use transform="matrix(0.04938271604938272,0,0,0.04938271604938272,73.82716049382717,0)" xlink:href="#ax"/></g><g id="N"><use transform="matrix(0.04938271604938272,0,0,0.04938271604938272,0,0)" xlink:href="#aN"/><use transform="matrix(0.04938271604938272,0,0,0.04938271604938272,5.8765432098765435,0)" xlink:href="#aF"/><use transform="matrix(0.04938271604938272,0,0,0.04938271604938272,16.691358024691358,0)" xlink:href="#at"/><use transform="matrix(0.04938271604938272,0,0,0.04938271604938272,27.50617283950617,0)" xlink:href="#aA"/></g><g id="O"><use transform="matrix(0.04938271604938272,0,0,0.04938271604938272,0,0)" xlink:href="#aF"/><use transform="matrix(0.04938271604938272,0,0,0.04938271604938272,10.814814814814815,0)" xlink:href="#at"/><use transform="matrix(0.04938271604938272,0,0,0.04938271604938272,21.62962962962963,0)" xlink:href="#au"/><use transform="matrix(0.04938271604938272,0,0,0.04938271604938272,31.506172839506174,0)" xlink:href="#aF"/><use transform="matrix(0.04938271604938272,0,0,0.04938271604938272,42.32098765432099,0)" xlink:href="#ay"/><use transform="matrix(0.04938271604938272,0,0,0.04938271604938272,52.19753086419754,0)" xlink:href="#ay"/><use transform="matrix(0.04938271604938272,0,0,0.04938271604938272,62.074074074074076,0)" xlink:href="#av"/><use transform="matrix(0.04938271604938272,0,0,0.04938271604938272,71.95061728395062,0)" xlink:href="#au"/><use transform="matrix(0.04938271604938272,0,0,0.04938271604938272,81.82716049382717,0)" xlink:href="#au"/><use transform="matrix(0.04938271604938272,0,0,0.04938271604938272,91.70370370370371,0)" xlink:href="#aN"/><use transform="matrix(0.04938271604938272,0,0,0.04938271604938272,97.58024691358025,0)" xlink:href="#aF"/><use transform="matrix(0.04938271604938272,0,0,0.04938271604938272,108.39506172839508,0)" xlink:href="#aI"/></g><path fill="#333" d="M67-125c0 53 21 87 73 88 37 1 54-22 65-47l45 17C233-25 199 4 140 4 58 4 20-42 15-125 8-235 124-281 211-232c18 10 29 29 36 50l-46 12c-8-25-30-41-62-41-52 0-71 34-72 86" id="aW"/><g id="P"><use transform="matrix(0.04938271604938272,0,0,0.04938271604938272,0,0)" xlink:href="#aW"/><use transform="matrix(0.04938271604938272,0,0,0.04938271604938272,12.790123456790125,0)" xlink:href="#az"/><use transform="matrix(0.04938271604938272,0,0,0.04938271604938272,22.66666666666667,0)" xlink:href="#aw"/><use transform="matrix(0.04938271604938272,0,0,0.04938271604938272,29.580246913580254,0)" xlink:href="#aA"/></g><path d="M205 0l-28-72H64L36 0H1l101-248h38L239 0h-34zm-38-99l-47-123c-12 45-31 82-46 123h93" id="aX"/><path d="M127-220V0H93v-220H8v-28h204v28h-85" id="aY"/><path d="M240 0l2-218c-23 76-54 145-80 218h-23L58-218 59 0H30v-248h44l77 211c21-75 51-140 76-211h43V0h-30" id="aZ"/><g id="Q"><use transform="matrix(0.05,0,0,0.05,0,0)" xlink:href="#aX"/><use transform="matrix(0.05,0,0,0.05,10.65,0)" xlink:href="#aY"/><use transform="matrix(0.05,0,0,0.05,21.6,0)" xlink:href="#aZ"/><path d="M-.9 1.25h38.35v1.32H-.9z"/></g><path d="M160-131c35 5 61 23 61 61C221 17 115-2 30 0v-248c76 3 177-17 177 60 0 33-19 50-47 57zm-97-11c50-1 110 9 110-42 0-47-63-36-110-37v79zm0 115c55-2 124 14 124-45 0-56-70-42-124-44v89" id="ba"/><path d="M141-36C126-15 110 5 73 4 37 3 15-17 15-53c-1-64 63-63 125-63 3-35-9-54-41-54-24 1-41 7-42 31l-33-3c5-37 33-52 76-52 45 0 72 20 72 64v82c-1 20 7 32 28 27v20c-31 9-61-2-59-35zM48-53c0 20 12 33 32 33 41-3 63-29 60-74-43 2-92-5-92 41" id="bb"/><path d="M117-194c89-4 53 116 60 194h-32v-121c0-31-8-49-39-48C34-167 62-67 57 0H25l-1-190h30c1 10-1 24 2 32 11-22 29-35 61-36" id="bc"/><path d="M143 0L79-87 56-68V0H24v-261h32v163l83-92h37l-77 82L181 0h-38" id="bd"/><g id="R"><use transform="matrix(0.05,0,0,0.05,0,0)" xlink:href="#ba"/><use transform="matrix(0.05,0,0,0.05,12,0)" xlink:href="#bb"/><use transform="matrix(0.05,0,0,0.05,22,0)" xlink:href="#bc"/><use transform="matrix(0.05,0,0,0.05,32,0)" xlink:href="#bd"/><path d="M-.9 1.25h47.8v1.32H-.9z"/></g><path d="M135-143c-3-34-86-38-87 0 15 53 115 12 119 90S17 21 10-45l28-5c4 36 97 45 98 0-10-56-113-15-118-90-4-57 82-63 122-42 12 7 21 19 24 35" id="be"/><path d="M100-194c63 0 86 42 84 106H49c0 40 14 67 53 68 26 1 43-12 49-29l28 8c-11 28-37 45-77 45C44 4 14-33 15-96c1-61 26-98 85-98zm52 81c6-60-76-77-97-28-3 7-6 17-6 28h103" id="bf"/><path d="M114-163C36-179 61-72 57 0H25l-1-190h30c1 12-1 29 2 39 6-27 23-49 58-41v29" id="bg"/><path d="M108 0H70L1-190h34L89-25l56-165h34" id="bh"/><g id="S"><use transform="matrix(0.05,0,0,0.05,0,0)" xlink:href="#be"/><use transform="matrix(0.05,0,0,0.05,9,0)" xlink:href="#bf"/><use transform="matrix(0.05,0,0,0.05,19,0)" xlink:href="#bg"/><use transform="matrix(0.05,0,0,0.05,24.95,0)" xlink:href="#bh"/><use transform="matrix(0.05,0,0,0.05,33.95,0)" xlink:href="#bf"/><use transform="matrix(0.05,0,0,0.05,43.95,0)" xlink:href="#bg"/><path d="M-.9 1.25h51.7v1.32H-.9z"/></g><path fill="#333" d="M136-208V0H84v-208H4v-40h212v40h-80" id="bi"/><path fill="#333" d="M144 0l-44-69L55 0H2l70-98-66-92h53l41 62 40-62h54l-67 91 71 99h-54" id="bj"/><g id="T"><use transform="matrix(0.04938271604938272,0,0,0.04938271604938272,0,0)" xlink:href="#bi"/><use transform="matrix(0.04938271604938272,0,0,0.04938271604938272,9.481481481481481,0)" xlink:href="#av"/><use transform="matrix(0.04938271604938272,0,0,0.04938271604938272,19.358024691358025,0)" xlink:href="#bj"/><use transform="matrix(0.04938271604938272,0,0,0.04938271604938272,29.23456790123457,0)" xlink:href="#ax"/></g><path d="M96-169c-40 0-48 33-48 73s9 75 48 75c24 0 41-14 43-38l32 2c-6 37-31 61-74 61-59 0-76-41-82-99-10-93 101-131 147-64 4 7 5 14 7 22l-32 3c-4-21-16-35-41-35" id="bk"/><path d="M100-194c62-1 85 37 85 99 1 63-27 99-86 99S16-35 15-95c0-66 28-99 85-99zM99-20c44 1 53-31 53-75 0-43-8-75-51-75s-53 32-53 75 10 74 51 75" id="bl"/><path d="M84 4C-5 8 30-112 23-190h32v120c0 31 7 50 39 49 72-2 45-101 50-169h31l1 190h-30c-1-10 1-25-2-33-11 22-28 36-60 37" id="bm"/><path d="M59-47c-2 24 18 29 38 22v24C64 9 27 4 27-40v-127H5v-23h24l9-43h21v43h35v23H59v120" id="bn"/><g id="U"><use transform="matrix(0.05,0,0,0.05,0,0)" xlink:href="#aX"/><use transform="matrix(0.05,0,0,0.05,12,0)" xlink:href="#bk"/><use transform="matrix(0.05,0,0,0.05,21,0)" xlink:href="#bk"/><use transform="matrix(0.05,0,0,0.05,30,0)" xlink:href="#bl"/><use transform="matrix(0.05,0,0,0.05,40,0)" xlink:href="#bm"/><use transform="matrix(0.05,0,0,0.05,50,0)" xlink:href="#bc"/><use transform="matrix(0.05,0,0,0.05,60,0)" xlink:href="#bn"/><path d="M-.9 1.25h66.8v1.32H-.9z"/></g></defs></g></svg>