<svg xmlns="http://www.w3.org/2000/svg" xmlns:xlink="http://www.w3.org/1999/xlink" xmlns:lucid="lucid" width="1649.06" height="1040"><g transform="translate(-70.94444444444444 -180)" lucid:page-tab-id="0_0"><path d="M542 206c0-3.3 2.7-6 6-6h706c3.3 0 6 2.7 6 6v988c0 3.3-2.7 6-6 6H548c-3.3 0-6-2.7-6-6z" stroke="#5e5e5e" stroke-width="3" fill-opacity="0"/><use xlink:href="#a" transform="matrix(1,0,0,1,550,208) translate(288.0679012345679 17.77777777777778)"/><use xlink:href="#b" transform="matrix(1,0,0,1,550,208) translate(374.4259259259259 17.77777777777778)"/><path d="M159.75 579.75c0 10.9-8.84 19.75-19.75 19.75-10.9 0-19.75-8.84-19.75-19.75 0-10.9 8.84-19.75 19.75-19.75 10.9 0 19.75 8.84 19.75 19.75z" stroke="#5e5e5e" stroke-width="3" fill="#fff"/><path d="M140 599.5v49.3c0 3.3 1.44 8.27 3.2 11.07L180 718m-40-63.2L100 718m0-98.75h80" stroke="#5e5e5e" stroke-width="3" fill="none"/><path d="M100 566c0-3.3 2.7-6 6-6h68c3.3 0 6 2.7 6 6v168c0 3.3-2.7 6-6 6h-68c-3.3 0-6-2.7-6-6z" fill="none"/><use xlink:href="#c" transform="matrix(1,0,0,1,20,718) translate(71.94444444444444 17.77777777777778)"/><path d="M1679.75 579.75c0 10.9-8.84 19.75-19.75 19.75-10.9 0-19.75-8.84-19.75-19.75 0-10.9 8.84-19.75 19.75-19.75 10.9 0 19.75 8.84 19.75 19.75z" stroke="#5e5e5e" stroke-width="3" fill="#fff"/><path d="M1660 599.5v49.3c0 3.3 1.44 8.27 3.2 11.07L1700 718m-40-63.2l-40 63.2m0-98.75h80" stroke="#5e5e5e" stroke-width="3" fill="none"/><path d="M1620 566c0-3.3 2.7-6 6-6h68c3.3 0 6 2.7 6 6v168c0 3.3-2.7 6-6 6h-68c-3.3 0-6-2.7-6-6z" fill="none"/><use xlink:href="#d" transform="matrix(1,0,0,1,1540,718) translate(94.69135802469137 17.77777777777778)"/><path d="M760 360c0 33.14-35.82 60-80 60s-80-26.86-80-60 35.82-60 80-60 80 26.86 80 60z" stroke="#5e5e5e" stroke-width="3" fill="#fff"/><use xlink:href="#e" transform="matrix(1,0,0,1,600,300) translate(55.53 63.15)"/><use xlink:href="#f" transform="matrix(1,0,0,1,600,300) translate(90.53 63.15)"/><path d="M760 510c0 33.14-35.82 60-80 60s-80-26.86-80-60 35.82-60 80-60 80 26.86 80 60z" stroke="#5e5e5e" stroke-width="3" fill="#fff"/><use xlink:href="#g" transform="matrix(1,0,0,1,600,450) translate(20.555 63.15)"/><use xlink:href="#h" transform="matrix(1,0,0,1,600,450) translate(76.505 63.15)"/><path d="M760 661.42c0 33.13-35.82 60-80 60s-80-26.87-80-60c0-33.14 35.82-60 80-60s80 26.86 80 60z" stroke="#5e5e5e" stroke-width="3" fill="#fff"/><use xlink:href="#i" transform="matrix(1,0,0,1,600,601.4173228346456) translate(19.429999999999986 63.15)"/><use xlink:href="#j" transform="matrix(1,0,0,1,600,601.4173228346456) translate(90.63 63.15)"/><path d="M880 868.9c0 38.04-35.82 68.88-80 68.88s-80-30.84-80-68.9c0-38.04 35.82-68.88 80-68.88s80 30.84 80 68.9z" stroke="#5e5e5e" stroke-width="3" fill="#fff"/><use xlink:href="#k" transform="matrix(1,0,0,1,720,800) translate(15.555000000000001 70.4625)"/><use xlink:href="#l" transform="matrix(1,0,0,1,720,800) translate(64.505 70.4625)"/><path d="M180.85 619.47l416.8-258.94" stroke="#5e5e5e" stroke-width="2" fill="none"/><path d="M181.4 620.3l-3.42 2.13-1.05-1.68H180v-1.93l.34-.2M598.5 359.98v.43l.03.76-.37.23-1.06-1.7 1.44-.9" fill="#5e5e5e"/><path d="M180.96 619.73l417.67-119.46" stroke="#5e5e5e" stroke-width="2" fill="none"/><path d="M181.26 620.68l-3.87 1.1-.3-1.03h2.9v-1.8l.7-.2M599.35 501.1l-.47.14-.55-1.92 1.5-.43" fill="#5e5e5e"/><path d="M181 620.1l416.5 41.22" stroke="#5e5e5e" stroke-width="2" fill="none"/><path d="M181.12 619.1l-.2 2-3.5-.35H180V619M598.53 660.42l-.03.98v.43l.03.6-1.15-.12.2-1.98" fill="#5e5e5e"/><path d="M180.9 620.42l536.7 248.05" stroke="#5e5e5e" stroke-width="2" fill="none"/><path d="M181.35 619.52l-.84 1.82-1.26-.6h.76v-1.84M718.53 867.8l-.03 1.07v.55l.03.58-1.38-.63.84-1.82" fill="#5e5e5e"/><path d="M1619 618.27L762.5 510.13" stroke="#5e5e5e" stroke-width="2" fill="none"/><path d="M1622.83 617.75H1620v1.66l-1.14-.14.25-1.98M762.64 509.14l-.25 1.98-.93-.12.03-.98v-.43l-.03-.6" fill="#5e5e5e"/><path d="M1619 618.45l-856.5 42.92" stroke="#5e5e5e" stroke-width="2" fill="none"/><path d="M1622.97 617.75H1620v1.65l-.97.05-.1-2 4.02-.2M762.57 662.36l-1.1.06.03-.98V661l-.02-.58 1-.05" fill="#5e5e5e"/><path d="M1619.37 619.67L882.77 869.5l-.64-1.88 736.6-249.85" fill="#5e5e5e"/><path d="M1622.95 617.75H1620v1.7l-.65.23-.64-1.9 3.82-1.3M882.8 869.5l-1.33.46.03-1.05v-.55l-.02-.5.67-.24" fill="#5e5e5e"/><path d="M1200 300c0 33.14-35.82 60-80 60s-80-26.86-80-60 35.82-60 80-60 80 26.86 80 60z" stroke="#5e5e5e" stroke-width="3" fill="#fff"/><use xlink:href="#m" transform="matrix(1,0,0,1,1040,240) translate(48.23 63.15)"/><path d="M772.24 358.7l-9.55 2.07-.43-1.96 9.55-2.06m29.08-4.25l-19.1 4.13-.43-1.96 19.1-4.14m29.1-4.25l-19.1 4.14-.44-1.96 19.1-4.13m10-.12l-.1-.37h1.86m103.3-22.38l-7 1.52v-.48h-7.27l13.85-3m29.08-4.26l-19.1 4.14-.43-1.96 19.1-4.13m29.1-4.27l-19.1 4.14-.44-1.95 19.1-4.14m19.53-2.2l-9.55 2.08-.43-1.95 9.56-2.06" fill="#5e5e5e"/><path d="M762.7 360.76l-1.23.27.03-1v-.44l-.03-.62.82-.17M1035.34 300.7l-12.96 7.54-1.97-9.07z" fill="#5e5e5e"/><path d="M1038.5 300l-16.8 9.8-2.56-11.76m3.92 8.64l9.1-5.3-10.48-1.07" fill="#5e5e5e"/><use xlink:href="#n" transform="matrix(1,0,0,1,833.6315124008178,322.4937761876057) translate(0 14.222222222222223)"/><path d="M1200 460c0 33.14-35.82 60-80 60s-80-26.86-80-60 35.82-60 80-60 80 26.86 80 60z" stroke="#5e5e5e" stroke-width="3" fill="#fff"/><use xlink:href="#o" transform="matrix(1,0,0,1,1040,400) translate(26.10499999999999 51.9)"/><use xlink:href="#p" transform="matrix(1,0,0,1,1040,400) translate(89.95500000000001 51.9)"/><use xlink:href="#q" transform="matrix(1,0,0,1,1040,400) translate(60.08 73.5)"/><path d="M1037.8 458.77l-.53 1.92-9.74-2.77.55-1.92m-9.73-2.75l-.55 1.92-19.46-5.5.55-1.94m-9.74-2.76l-.55 1.93-19.45-5.52.54-1.92m-9.74-2.76l-.54 1.92-19.47-5.52.55-1.92m-76.7-21.74h-7.35l-4.08-1.16.55-1.93m-9.73-2.75l-.56 1.92-19.46-5.52.55-1.92m-9.73-2.76l-.55 1.93-19.46-5.52.53-1.93m-9.73-2.75l-.54 1.92-9.73-2.76.54-1.9" fill="#5e5e5e"/><path d="M1038.53 458.97l-.03 1v.44l.03.65-1.3-.37.56-1.92M772.57 389.44l-12.46-8.35 15-.58z" fill="#5e5e5e"/><path d="M773.16 391.03L757 380.2l19.44-.73m-13.2 2.5l8.75 5.87 1.76-6.27" fill="#5e5e5e"/><use xlink:href="#r" transform="matrix(1,0,0,1,847.4528981448392,409.4351275987927) translate(0 14.222222222222223)"/><path d="M1180 740c0 33.14-35.82 60-80 60s-80-26.86-80-60 35.82-60 80-60 80 26.86 80 60z" stroke="#5e5e5e" stroke-width="3" fill="#fff"/><use xlink:href="#s" transform="matrix(1,0,0,1,1020,680) translate(26.08 51.9)"/><use xlink:href="#t" transform="matrix(1,0,0,1,1020,680) translate(75.97999999999999 51.9)"/><use xlink:href="#u" transform="matrix(1,0,0,1,1020,680) translate(89.93 51.9)"/><use xlink:href="#v" transform="matrix(1,0,0,1,1020,680) translate(29.25499999999999 73.5)"/><use xlink:href="#w" transform="matrix(1,0,0,1,1020,680) translate(60.20499999999999 73.5)"/><path d="M1001.1 733.63l-.6 1.92-9.92-3.04.6-1.9m-9.94-3.04l-.6 1.9-19.85-6.06.57-1.9m-9.93-3.05l-.58 1.9L931 714.3l.58-1.92m-9.93-3.04l-.6 1.9-19.85-6.06.03-.1h6.5M832.26 682l-.53 1.75h-.63l-19.28-5.9.6-1.9m-9.95-3.05l-.58 1.9-19.87-6.06.58-1.9m-9.92-3.05l-.58 1.9-9.94-3.03.6-1.92" fill="#5e5e5e"/><path d="M762.77 660.76l-.58 1.9-.73-.2.03-1.02V661l-.03-.64M1015.4 739.05l-15 .27 2.72-8.87z" fill="#5e5e5e"/><path d="M1018.5 740l-19.45.34 3.5-11.5m-.78 9.45l10.54-.2-8.63-6.04" fill="#5e5e5e"/><use xlink:href="#n" transform="matrix(1,0,0,1,817.6330776956611,683.7464684491496) translate(0 14.222222222222223)"/><path d="M889.74 862.5l-6.83 6.43-1.36-1.45 6.83-6.42m21.83-17.8l-13.64 12.84-1.37-1.46 13.63-12.84m21.84-17.8l-13.65 12.84-1.37-1.46 13.65-12.83m21.83-17.8L937.5 817.6l-1.38-1.47 12.25-11.52H951m41.07-38.36l-13.65 12.84-1.37-1.46 13.65-12.83m15-11.4l-6.8 6.42-1.38-1.45 6.82-6.42" fill="#5e5e5e"/><path d="M882.93 868.9l-1.47 1.4.04-1.4v-.55l-.03-.8M1008.93 755.37l-6.35-6.75 13.56-6.4z" fill="#5e5e5e"/><path d="M1009.14 757.06l-8.23-8.76 17.6-8.3m-14.25 8.93l4.46 4.75 5.1-9.25" fill="#5e5e5e"/><use xlink:href="#x" transform="matrix(1,0,0,1,909.3894255987358,783.2717288478327) translate(0 14.222222222222223)"/><path d="M740 1080c0 33.14-35.82 60-80 60s-80-26.86-80-60 35.82-60 80-60 80 26.86 80 60z" stroke="#5e5e5e" stroke-width="3" fill="#fff"/><g><use xlink:href="#y" transform="matrix(1,0,0,1,580,1020) translate(44.055 51.9)"/><use xlink:href="#z" transform="matrix(1,0,0,1,580,1020) translate(80.055 51.9)"/><use xlink:href="#A" transform="matrix(1,0,0,1,580,1020) translate(42.55499999999999 73.5)"/></g><path d="M1020 1080c0 33.14-35.82 60-80 60s-80-26.86-80-60 35.82-60 80-60 80 26.86 80 60z" stroke="#5e5e5e" stroke-width="3" fill="#fff"/><g><use xlink:href="#y" transform="matrix(1,0,0,1,860,1020) translate(14.079999999999993 63.15)"/><use xlink:href="#B" transform="matrix(1,0,0,1,860,1020) translate(50.07999999999999 63.15)"/><use xlink:href="#C" transform="matrix(1,0,0,1,860,1020) translate(90.97999999999999 63.15)"/></g><path d="M660 1017.5v-32.6c0-3.32 2.7-6 6-6h128c3.3 0 6-2.7 6-6v-9.14" stroke="#5e5e5e" stroke-width="2" fill="none"/><path d="M661 1018.53l-.98-.03H659v-1.03h2" fill="#5e5e5e"/><path d="M800 941.24l12.73 21.52h-25.46z" stroke="#5e5e5e" stroke-width="2" fill="#fff"/><path d="M940 1017.5V986c0-3.3-2.7-6-6-6H806c-3.3 0-6-2.7-6-6v-10.24" stroke="#5e5e5e" stroke-width="2" fill="none"/><path d="M941 1018.53l-.98-.03H939v-1.03h2" fill="#5e5e5e"/><path d="M800 941.24l12.73 21.52h-25.46z" stroke="#5e5e5e" stroke-width="2" fill="#fff"/><defs><path fill="#333" d="M160-131c35 5 61 23 61 61C221 17 115-2 30 0v-248c76 3 177-17 177 60 0 33-19 50-47 57zm-97-11c50-1 110 9 110-42 0-47-63-36-110-37v79zm0 115c55-2 124 14 124-45 0-56-70-42-124-44v89" id="D"/><path fill="#333" d="M141-36C126-15 110 5 73 4 37 3 15-17 15-53c-1-64 63-63 125-63 3-35-9-54-41-54-24 1-41 7-42 31l-33-3c5-37 33-52 76-52 45 0 72 20 72 64v82c-1 20 7 32 28 27v20c-31 9-61-2-59-35zM48-53c0 20 12 33 32 33 41-3 63-29 60-74-43 2-92-5-92 41" id="E"/><path fill="#333" d="M117-194c89-4 53 116 60 194h-32v-121c0-31-8-49-39-48C34-167 62-67 57 0H25l-1-190h30c1 10-1 24 2 32 11-22 29-35 61-36" id="F"/><path fill="#333" d="M143 0L79-87 56-68V0H24v-261h32v163l83-92h37l-77 82L181 0h-38" id="G"/><path fill="#333" d="M24-231v-30h32v30H24zM24 0v-190h32V0H24" id="H"/><path fill="#333" d="M177-190C167-65 218 103 67 71c-23-6-38-20-44-43l32-5c15 47 100 32 89-28v-30C133-14 115 1 83 1 29 1 15-40 15-95c0-56 16-97 71-98 29-1 48 16 59 35 1-10 0-23 2-32h30zM94-22c36 0 50-32 50-73 0-42-14-75-50-75-39 0-46 34-46 75s6 73 46 73" id="I"/><g id="a"><use transform="matrix(0.06172839506172839,0,0,0.06172839506172839,0,0)" xlink:href="#D"/><use transform="matrix(0.06172839506172839,0,0,0.06172839506172839,14.814814814814813,0)" xlink:href="#E"/><use transform="matrix(0.06172839506172839,0,0,0.06172839506172839,27.160493827160494,0)" xlink:href="#F"/><use transform="matrix(0.06172839506172839,0,0,0.06172839506172839,39.50617283950617,0)" xlink:href="#G"/><use transform="matrix(0.06172839506172839,0,0,0.06172839506172839,50.61728395061728,0)" xlink:href="#H"/><use transform="matrix(0.06172839506172839,0,0,0.06172839506172839,55.49382716049382,0)" xlink:href="#F"/><use transform="matrix(0.06172839506172839,0,0,0.06172839506172839,67.8395061728395,0)" xlink:href="#I"/></g><path fill="#333" d="M205 0l-28-72H64L36 0H1l101-248h38L239 0h-34zm-38-99l-47-123c-12 45-31 82-46 123h93" id="J"/><path fill="#333" d="M115-194c55 1 70 41 70 98S169 2 115 4C84 4 66-9 55-30l1 105H24l-1-265h31l2 30c10-21 28-34 59-34zm-8 174c40 0 45-34 45-75s-6-73-45-74c-42 0-51 32-51 76 0 43 10 73 51 73" id="K"/><g id="b"><use transform="matrix(0.06172839506172839,0,0,0.06172839506172839,0,0)" xlink:href="#J"/><use transform="matrix(0.06172839506172839,0,0,0.06172839506172839,14.814814814814813,0)" xlink:href="#K"/><use transform="matrix(0.06172839506172839,0,0,0.06172839506172839,27.160493827160494,0)" xlink:href="#K"/></g><path fill="#333" d="M212-179c-10-28-35-45-73-45-59 0-87 40-87 99 0 60 29 101 89 101 43 0 62-24 78-52l27 14C228-24 195 4 139 4 59 4 22-46 18-125c-6-104 99-153 187-111 19 9 31 26 39 46" id="L"/><path fill="#333" d="M84 4C-5 8 30-112 23-190h32v120c0 31 7 50 39 49 72-2 45-101 50-169h31l1 190h-30c-1-10 1-25-2-33-11 22-28 36-60 37" id="M"/><path fill="#333" d="M135-143c-3-34-86-38-87 0 15 53 115 12 119 90S17 21 10-45l28-5c4 36 97 45 98 0-10-56-113-15-118-90-4-57 82-63 122-42 12 7 21 19 24 35" id="N"/><path fill="#333" d="M59-47c-2 24 18 29 38 22v24C64 9 27 4 27-40v-127H5v-23h24l9-43h21v43h35v23H59v120" id="O"/><path fill="#333" d="M100-194c62-1 85 37 85 99 1 63-27 99-86 99S16-35 15-95c0-66 28-99 85-99zM99-20c44 1 53-31 53-75 0-43-8-75-51-75s-53 32-53 75 10 74 51 75" id="P"/><path fill="#333" d="M210-169c-67 3-38 105-44 169h-31v-121c0-29-5-50-35-48C34-165 62-65 56 0H25l-1-190h30c1 10-1 24 2 32 10-44 99-50 107 0 11-21 27-35 58-36 85-2 47 119 55 194h-31v-121c0-29-5-49-35-48" id="Q"/><path fill="#333" d="M100-194c63 0 86 42 84 106H49c0 40 14 67 53 68 26 1 43-12 49-29l28 8c-11 28-37 45-77 45C44 4 14-33 15-96c1-61 26-98 85-98zm52 81c6-60-76-77-97-28-3 7-6 17-6 28h103" id="R"/><path fill="#333" d="M114-163C36-179 61-72 57 0H25l-1-190h30c1 12-1 29 2 39 6-27 23-49 58-41v29" id="S"/><g id="c"><use transform="matrix(0.06172839506172839,0,0,0.06172839506172839,0,0)" xlink:href="#L"/><use transform="matrix(0.06172839506172839,0,0,0.06172839506172839,15.987654320987653,0)" xlink:href="#M"/><use transform="matrix(0.06172839506172839,0,0,0.06172839506172839,28.333333333333332,0)" xlink:href="#N"/><use transform="matrix(0.06172839506172839,0,0,0.06172839506172839,39.44444444444444,0)" xlink:href="#O"/><use transform="matrix(0.06172839506172839,0,0,0.06172839506172839,45.617283950617285,0)" xlink:href="#P"/><use transform="matrix(0.06172839506172839,0,0,0.06172839506172839,57.96296296296296,0)" xlink:href="#Q"/><use transform="matrix(0.06172839506172839,0,0,0.06172839506172839,76.41975308641975,0)" xlink:href="#R"/><use transform="matrix(0.06172839506172839,0,0,0.06172839506172839,88.76543209876543,0)" xlink:href="#S"/></g><g id="d"><use transform="matrix(0.06172839506172839,0,0,0.06172839506172839,0,0)" xlink:href="#D"/><use transform="matrix(0.06172839506172839,0,0,0.06172839506172839,14.814814814814813,0)" xlink:href="#E"/><use transform="matrix(0.06172839506172839,0,0,0.06172839506172839,27.160493827160494,0)" xlink:href="#F"/><use transform="matrix(0.06172839506172839,0,0,0.06172839506172839,39.50617283950617,0)" xlink:href="#G"/></g><path d="M30 0v-248h33v221h125V0H30" id="T"/><path d="M100-194c62-1 85 37 85 99 1 63-27 99-86 99S16-35 15-95c0-66 28-99 85-99zM99-20c44 1 53-31 53-75 0-43-8-75-51-75s-53 32-53 75 10 74 51 75" id="U"/><path d="M177-190C167-65 218 103 67 71c-23-6-38-20-44-43l32-5c15 47 100 32 89-28v-30C133-14 115 1 83 1 29 1 15-40 15-95c0-56 16-97 71-98 29-1 48 16 59 35 1-10 0-23 2-32h30zM94-22c36 0 50-32 50-73 0-42-14-75-50-75-39 0-46 34-46 75s6 73 46 73" id="V"/><g id="e"><use transform="matrix(0.05,0,0,0.05,0,0)" xlink:href="#T"/><use transform="matrix(0.05,0,0,0.05,10,0)" xlink:href="#U"/><use transform="matrix(0.05,0,0,0.05,20,0)" xlink:href="#V"/></g><path d="M24-231v-30h32v30H24zM24 0v-190h32V0H24" id="W"/><path d="M117-194c89-4 53 116 60 194h-32v-121c0-31-8-49-39-48C34-167 62-67 57 0H25l-1-190h30c1 10-1 24 2 32 11-22 29-35 61-36" id="X"/><g id="f"><use transform="matrix(0.05,0,0,0.05,0,0)" xlink:href="#W"/><use transform="matrix(0.05,0,0,0.05,3.95,0)" xlink:href="#X"/></g><path d="M212-179c-10-28-35-45-73-45-59 0-87 40-87 99 0 60 29 101 89 101 43 0 62-24 78-52l27 14C228-24 195 4 139 4 59 4 22-46 18-125c-6-104 99-153 187-111 19 9 31 26 39 46" id="Y"/><path d="M106-169C34-169 62-67 57 0H25v-261h32l-1 103c12-21 28-36 61-36 89 0 53 116 60 194h-32v-121c2-32-8-49-39-48" id="Z"/><path d="M100-194c63 0 86 42 84 106H49c0 40 14 67 53 68 26 1 43-12 49-29l28 8c-11 28-37 45-77 45C44 4 14-33 15-96c1-61 26-98 85-98zm52 81c6-60-76-77-97-28-3 7-6 17-6 28h103" id="aa"/><path d="M96-169c-40 0-48 33-48 73s9 75 48 75c24 0 41-14 43-38l32 2c-6 37-31 61-74 61-59 0-76-41-82-99-10-93 101-131 147-64 4 7 5 14 7 22l-32 3c-4-21-16-35-41-35" id="ab"/><path d="M143 0L79-87 56-68V0H24v-261h32v163l83-92h37l-77 82L181 0h-38" id="ac"/><g id="g"><use transform="matrix(0.05,0,0,0.05,0,0)" xlink:href="#Y"/><use transform="matrix(0.05,0,0,0.05,12.950000000000001,0)" xlink:href="#Z"/><use transform="matrix(0.05,0,0,0.05,22.950000000000003,0)" xlink:href="#aa"/><use transform="matrix(0.05,0,0,0.05,32.95,0)" xlink:href="#ab"/><use transform="matrix(0.05,0,0,0.05,41.95,0)" xlink:href="#ac"/></g><path d="M115-194c53 0 69 39 70 98 0 66-23 100-70 100C84 3 66-7 56-30L54 0H23l1-261h32v101c10-23 28-34 59-34zm-8 174c40 0 45-34 45-75 0-40-5-75-45-74-42 0-51 32-51 76 0 43 10 73 51 73" id="ad"/><path d="M141-36C126-15 110 5 73 4 37 3 15-17 15-53c-1-64 63-63 125-63 3-35-9-54-41-54-24 1-41 7-42 31l-33-3c5-37 33-52 76-52 45 0 72 20 72 64v82c-1 20 7 32 28 27v20c-31 9-61-2-59-35zM48-53c0 20 12 33 32 33 41-3 63-29 60-74-43 2-92-5-92 41" id="ae"/><path d="M24 0v-261h32V0H24" id="af"/><g id="h"><use transform="matrix(0.05,0,0,0.05,0,0)" xlink:href="#ad"/><use transform="matrix(0.05,0,0,0.05,10,0)" xlink:href="#ae"/><use transform="matrix(0.05,0,0,0.05,20,0)" xlink:href="#af"/><use transform="matrix(0.05,0,0,0.05,23.95,0)" xlink:href="#ae"/><use transform="matrix(0.05,0,0,0.05,33.95,0)" xlink:href="#X"/><use transform="matrix(0.05,0,0,0.05,43.95,0)" xlink:href="#ab"/><use transform="matrix(0.05,0,0,0.05,52.95,0)" xlink:href="#aa"/></g><path d="M127-220V0H93v-220H8v-28h204v28h-85" id="ag"/><path d="M114-163C36-179 61-72 57 0H25l-1-190h30c1 12-1 29 2 39 6-27 23-49 58-41v29" id="ah"/><path d="M135-143c-3-34-86-38-87 0 15 53 115 12 119 90S17 21 10-45l28-5c4 36 97 45 98 0-10-56-113-15-118-90-4-57 82-63 122-42 12 7 21 19 24 35" id="ai"/><path d="M101-234c-31-9-42 10-38 44h38v23H63V0H32v-167H5v-23h27c-7-52 17-82 69-68v24" id="aj"/><g id="i"><use transform="matrix(0.05,0,0,0.05,0,0)" xlink:href="#ag"/><use transform="matrix(0.05,0,0,0.05,10.3,0)" xlink:href="#ah"/><use transform="matrix(0.05,0,0,0.05,16.25,0)" xlink:href="#ae"/><use transform="matrix(0.05,0,0,0.05,26.25,0)" xlink:href="#X"/><use transform="matrix(0.05,0,0,0.05,36.25,0)" xlink:href="#ai"/><use transform="matrix(0.05,0,0,0.05,45.25,0)" xlink:href="#aj"/><use transform="matrix(0.05,0,0,0.05,50.25,0)" xlink:href="#aa"/><use transform="matrix(0.05,0,0,0.05,60.25,0)" xlink:href="#ah"/></g><path d="M63-220v92h138v28H63V0H30v-248h175v28H63" id="ak"/><path d="M84 4C-5 8 30-112 23-190h32v120c0 31 7 50 39 49 72-2 45-101 50-169h31l1 190h-30c-1-10 1-25-2-33-11 22-28 36-60 37" id="al"/><path d="M85-194c31 0 48 13 60 33l-1-100h32l1 261h-30c-2-10 0-23-3-31C134-8 116 4 85 4 32 4 16-35 15-94c0-66 23-100 70-100zm9 24c-40 0-46 34-46 75 0 40 6 74 45 74 42 0 51-32 51-76 0-42-9-74-50-73" id="am"/><g id="j"><use transform="matrix(0.05,0,0,0.05,0,0)" xlink:href="#ak"/><use transform="matrix(0.05,0,0,0.05,10.950000000000001,0)" xlink:href="#al"/><use transform="matrix(0.05,0,0,0.05,20.950000000000003,0)" xlink:href="#X"/><use transform="matrix(0.05,0,0,0.05,30.950000000000003,0)" xlink:href="#am"/><use transform="matrix(0.05,0,0,0.05,40.95,0)" xlink:href="#ai"/></g><path d="M240 0l2-218c-23 76-54 145-80 218h-23L58-218 59 0H30v-248h44l77 211c21-75 51-140 76-211h43V0h-30" id="an"/><g id="k"><use transform="matrix(0.05,0,0,0.05,0,0)" xlink:href="#an"/><use transform="matrix(0.05,0,0,0.05,14.950000000000001,0)" xlink:href="#ae"/><use transform="matrix(0.05,0,0,0.05,24.950000000000003,0)" xlink:href="#ac"/><use transform="matrix(0.05,0,0,0.05,33.95,0)" xlink:href="#aa"/></g><path d="M30-248c87 1 191-15 191 75 0 78-77 80-158 76V0H30v-248zm33 125c57 0 124 11 124-50 0-59-68-47-124-48v98" id="ao"/><path d="M179-190L93 31C79 59 56 82 12 73V49c39 6 53-20 64-50L1-190h34L92-34l54-156h33" id="ap"/><path d="M210-169c-67 3-38 105-44 169h-31v-121c0-29-5-50-35-48C34-165 62-65 56 0H25l-1-190h30c1 10-1 24 2 32 10-44 99-50 107 0 11-21 27-35 58-36 85-2 47 119 55 194h-31v-121c0-29-5-49-35-48" id="aq"/><path d="M59-47c-2 24 18 29 38 22v24C64 9 27 4 27-40v-127H5v-23h24l9-43h21v43h35v23H59v120" id="ar"/><g id="l"><use transform="matrix(0.05,0,0,0.05,0,0)" xlink:href="#ao"/><use transform="matrix(0.05,0,0,0.05,12,0)" xlink:href="#ae"/><use transform="matrix(0.05,0,0,0.05,22,0)" xlink:href="#ap"/><use transform="matrix(0.05,0,0,0.05,31,0)" xlink:href="#aq"/><use transform="matrix(0.05,0,0,0.05,45.95,0)" xlink:href="#aa"/><use transform="matrix(0.05,0,0,0.05,55.95,0)" xlink:href="#X"/><use transform="matrix(0.05,0,0,0.05,65.95,0)" xlink:href="#ar"/><use transform="matrix(0.05,0,0,0.05,70.95,0)" xlink:href="#ai"/></g><path d="M137 0h-34L2-248h35l83 218 83-218h36" id="as"/><g id="m"><use transform="matrix(0.05,0,0,0.05,0,0)" xlink:href="#as"/><use transform="matrix(0.05,0,0,0.05,10.65,0)" xlink:href="#ae"/><use transform="matrix(0.05,0,0,0.05,20.65,0)" xlink:href="#af"/><use transform="matrix(0.05,0,0,0.05,24.599999999999998,0)" xlink:href="#W"/><use transform="matrix(0.05,0,0,0.05,28.549999999999997,0)" xlink:href="#am"/><use transform="matrix(0.05,0,0,0.05,38.55,0)" xlink:href="#ae"/><use transform="matrix(0.05,0,0,0.05,48.55,0)" xlink:href="#ar"/><use transform="matrix(0.05,0,0,0.05,53.54999999999999,0)" xlink:href="#aa"/></g><path fill="#333" d="M15-91v-56l181-69v40L49-119l147 57v40" id="at"/><path fill="#333" d="M24 0v-248h52V0H24" id="au"/><path fill="#333" d="M135-194c87-1 58 113 63 194h-50c-7-57 23-157-34-157-59 0-34 97-39 157H25l-1-190h47c2 12-1 28 3 38 12-26 28-41 61-42" id="av"/><path fill="#333" d="M190-63c-7 42-38 67-86 67-59 0-84-38-90-98-12-110 154-137 174-36l-49 2c-2-19-15-32-35-32-30 0-35 28-38 64-6 74 65 87 74 30" id="aw"/><path fill="#333" d="M25 0v-261h50V0H25" id="ax"/><path fill="#333" d="M85 4C-2 5 27-109 22-190h50c7 57-23 150 33 157 60-5 35-97 40-157h50l1 190h-47c-2-12 1-28-3-38-12 25-28 42-61 42" id="ay"/><path fill="#333" d="M88-194c31-1 46 15 58 34l-1-101h50l1 261h-48c-2-10 0-23-3-31C134-8 116 4 84 4 32 4 16-41 15-95c0-56 19-97 73-99zm17 164c33 0 40-30 41-66 1-37-9-64-41-64s-38 30-39 65c0 43 13 65 39 65" id="az"/><path fill="#333" d="M185-48c-13 30-37 53-82 52C43 2 14-33 14-96s30-98 90-98c62 0 83 45 84 108H66c0 31 8 55 39 56 18 0 30-7 34-22zm-45-69c5-46-57-63-70-21-2 6-4 13-4 21h74" id="aA"/><path fill="#333" d="M15-22v-40l146-57-146-57v-40l181 69v56" id="aB"/><g id="n"><use transform="matrix(0.04938271604938272,0,0,0.04938271604938272,0,0)" xlink:href="#at"/><use transform="matrix(0.04938271604938272,0,0,0.04938271604938272,10.370370370370372,0)" xlink:href="#at"/><use transform="matrix(0.04938271604938272,0,0,0.04938271604938272,20.740740740740744,0)" xlink:href="#au"/><use transform="matrix(0.04938271604938272,0,0,0.04938271604938272,25.679012345679016,0)" xlink:href="#av"/><use transform="matrix(0.04938271604938272,0,0,0.04938271604938272,36.49382716049383,0)" xlink:href="#aw"/><use transform="matrix(0.04938271604938272,0,0,0.04938271604938272,46.370370370370374,0)" xlink:href="#ax"/><use transform="matrix(0.04938271604938272,0,0,0.04938271604938272,51.308641975308646,0)" xlink:href="#ay"/><use transform="matrix(0.04938271604938272,0,0,0.04938271604938272,62.12345679012346,0)" xlink:href="#az"/><use transform="matrix(0.04938271604938272,0,0,0.04938271604938272,72.93827160493828,0)" xlink:href="#aA"/><use transform="matrix(0.04938271604938272,0,0,0.04938271604938272,82.81481481481482,0)" xlink:href="#aB"/><use transform="matrix(0.04938271604938272,0,0,0.04938271604938272,93.18518518518519,0)" xlink:href="#aB"/></g><path d="M30-248c118-7 216 8 213 122C240-48 200 0 122 0H30v-248zM63-27c89 8 146-16 146-99s-60-101-146-95v194" id="aC"/><path d="M115-194c55 1 70 41 70 98S169 2 115 4C84 4 66-9 55-30l1 105H24l-1-265h31l2 30c10-21 28-34 59-34zm-8 174c40 0 45-34 45-75s-6-73-45-74c-42 0-51 32-51 76 0 43 10 73 51 73" id="aD"/><g id="o"><use transform="matrix(0.05,0,0,0.05,0,0)" xlink:href="#aC"/><use transform="matrix(0.05,0,0,0.05,12.950000000000001,0)" xlink:href="#W"/><use transform="matrix(0.05,0,0,0.05,16.900000000000002,0)" xlink:href="#ai"/><use transform="matrix(0.05,0,0,0.05,25.900000000000002,0)" xlink:href="#aD"/><use transform="matrix(0.05,0,0,0.05,35.900000000000006,0)" xlink:href="#af"/><use transform="matrix(0.05,0,0,0.05,39.85000000000001,0)" xlink:href="#ae"/><use transform="matrix(0.05,0,0,0.05,49.85000000000001,0)" xlink:href="#ap"/></g><g id="p"><use transform="matrix(0.05,0,0,0.05,0,0)" xlink:href="#T"/><use transform="matrix(0.05,0,0,0.05,10,0)" xlink:href="#U"/><use transform="matrix(0.05,0,0,0.05,20,0)" xlink:href="#V"/><use transform="matrix(0.05,0,0,0.05,30,0)" xlink:href="#W"/><use transform="matrix(0.05,0,0,0.05,33.95,0)" xlink:href="#X"/></g><path d="M30 0v-248h187v28H63v79h144v27H63v87h162V0H30" id="aE"/><g id="q"><use transform="matrix(0.05,0,0,0.05,0,0)" xlink:href="#aE"/><use transform="matrix(0.05,0,0,0.05,12,0)" xlink:href="#ah"/><use transform="matrix(0.05,0,0,0.05,17.95,0)" xlink:href="#ah"/><use transform="matrix(0.05,0,0,0.05,23.9,0)" xlink:href="#U"/><use transform="matrix(0.05,0,0,0.05,33.9,0)" xlink:href="#ah"/></g><path fill="#333" d="M24 0v-248h195v40H76v63h132v40H76v65h150V0H24" id="aF"/><path fill="#333" d="M144 0l-44-69L55 0H2l70-98-66-92h53l41 62 40-62h54l-67 91 71 99h-54" id="aG"/><path fill="#333" d="M115-3C79 11 28 4 28-45v-112H4v-33h27l15-45h31v45h36v33H77v99c-1 23 16 31 38 25v30" id="aH"/><g id="r"><use transform="matrix(0.04938271604938272,0,0,0.04938271604938272,0,0)" xlink:href="#at"/><use transform="matrix(0.04938271604938272,0,0,0.04938271604938272,10.370370370370372,0)" xlink:href="#at"/><use transform="matrix(0.04938271604938272,0,0,0.04938271604938272,20.740740740740744,0)" xlink:href="#aF"/><use transform="matrix(0.04938271604938272,0,0,0.04938271604938272,32.592592592592595,0)" xlink:href="#aG"/><use transform="matrix(0.04938271604938272,0,0,0.04938271604938272,42.46913580246914,0)" xlink:href="#aH"/><use transform="matrix(0.04938271604938272,0,0,0.04938271604938272,48.345679012345684,0)" xlink:href="#aA"/><use transform="matrix(0.04938271604938272,0,0,0.04938271604938272,58.22222222222223,0)" xlink:href="#av"/><use transform="matrix(0.04938271604938272,0,0,0.04938271604938272,69.03703703703704,0)" xlink:href="#az"/><use transform="matrix(0.04938271604938272,0,0,0.04938271604938272,79.85185185185185,0)" xlink:href="#aB"/><use transform="matrix(0.04938271604938272,0,0,0.04938271604938272,90.22222222222221,0)" xlink:href="#aB"/></g><g id="s"><use transform="matrix(0.05,0,0,0.05,0,0)" xlink:href="#as"/><use transform="matrix(0.05,0,0,0.05,11,0)" xlink:href="#aa"/><use transform="matrix(0.05,0,0,0.05,21,0)" xlink:href="#ah"/><use transform="matrix(0.05,0,0,0.05,26.950000000000003,0)" xlink:href="#W"/><use transform="matrix(0.05,0,0,0.05,30.899999999999995,0)" xlink:href="#aj"/><use transform="matrix(0.05,0,0,0.05,35.9,0)" xlink:href="#ap"/></g><g id="t"><use transform="matrix(0.05,0,0,0.05,0,0)" xlink:href="#W"/><use transform="matrix(0.05,0,0,0.05,3.95,0)" xlink:href="#aj"/></g><g id="u"><use transform="matrix(0.05,0,0,0.05,0,0)" xlink:href="#aj"/><use transform="matrix(0.05,0,0,0.05,5,0)" xlink:href="#al"/><use transform="matrix(0.05,0,0,0.05,15,0)" xlink:href="#X"/><use transform="matrix(0.05,0,0,0.05,25,0)" xlink:href="#am"/><use transform="matrix(0.05,0,0,0.05,35,0)" xlink:href="#ai"/></g><g id="v"><use transform="matrix(0.05,0,0,0.05,0,0)" xlink:href="#ae"/><use transform="matrix(0.05,0,0,0.05,10,0)" xlink:href="#ah"/><use transform="matrix(0.05,0,0,0.05,15.949999999999998,0)" xlink:href="#aa"/></g><g id="w"><use transform="matrix(0.05,0,0,0.05,0,0)" xlink:href="#ai"/><use transform="matrix(0.05,0,0,0.05,9,0)" xlink:href="#al"/><use transform="matrix(0.05,0,0,0.05,19,0)" xlink:href="#aj"/><use transform="matrix(0.05,0,0,0.05,23.65,0)" xlink:href="#aj"/><use transform="matrix(0.05,0,0,0.05,28.649999999999995,0)" xlink:href="#W"/><use transform="matrix(0.05,0,0,0.05,32.6,0)" xlink:href="#ab"/><use transform="matrix(0.05,0,0,0.05,41.6,0)" xlink:href="#W"/><use transform="matrix(0.05,0,0,0.05,45.550000000000004,0)" xlink:href="#aa"/><use transform="matrix(0.05,0,0,0.05,55.550000000000004,0)" xlink:href="#X"/><use transform="matrix(0.05,0,0,0.05,65.55000000000001,0)" xlink:href="#ar"/></g><path fill="#333" d="M25-224v-37h50v37H25zM25 0v-190h50V0H25" id="aI"/><g id="x"><use transform="matrix(0.04938271604938272,0,0,0.04938271604938272,0,0)" xlink:href="#at"/><use transform="matrix(0.04938271604938272,0,0,0.04938271604938272,10.370370370370372,0)" xlink:href="#at"/><use transform="matrix(0.04938271604938272,0,0,0.04938271604938272,20.740740740740744,0)" xlink:href="#aI"/><use transform="matrix(0.04938271604938272,0,0,0.04938271604938272,25.679012345679016,0)" xlink:href="#av"/><use transform="matrix(0.04938271604938272,0,0,0.04938271604938272,36.49382716049383,0)" xlink:href="#aw"/><use transform="matrix(0.04938271604938272,0,0,0.04938271604938272,46.370370370370374,0)" xlink:href="#ax"/><use transform="matrix(0.04938271604938272,0,0,0.04938271604938272,51.308641975308646,0)" xlink:href="#ay"/><use transform="matrix(0.04938271604938272,0,0,0.04938271604938272,62.12345679012346,0)" xlink:href="#az"/><use transform="matrix(0.04938271604938272,0,0,0.04938271604938272,72.93827160493828,0)" xlink:href="#aA"/><use transform="matrix(0.04938271604938272,0,0,0.04938271604938272,82.81481481481482,0)" xlink:href="#aB"/><use transform="matrix(0.04938271604938272,0,0,0.04938271604938272,93.18518518518519,0)" xlink:href="#aB"/></g><g id="y"><use transform="matrix(0.05,0,0,0.05,0,0)" xlink:href="#ao"/><use transform="matrix(0.05,0,0,0.05,12,0)" xlink:href="#ae"/><use transform="matrix(0.05,0,0,0.05,22,0)" xlink:href="#ap"/></g><g id="z"><use transform="matrix(0.05,0,0,0.05,0,0)" xlink:href="#aj"/><use transform="matrix(0.05,0,0,0.05,5,0)" xlink:href="#ah"/><use transform="matrix(0.05,0,0,0.05,10.95,0)" xlink:href="#U"/><use transform="matrix(0.05,0,0,0.05,20.95,0)" xlink:href="#aq"/></g><g id="A"><use transform="matrix(0.05,0,0,0.05,0,0)" xlink:href="#Y"/><use transform="matrix(0.05,0,0,0.05,12.950000000000001,0)" xlink:href="#Z"/><use transform="matrix(0.05,0,0,0.05,22.950000000000003,0)" xlink:href="#aa"/><use transform="matrix(0.05,0,0,0.05,32.95,0)" xlink:href="#ab"/><use transform="matrix(0.05,0,0,0.05,41.95,0)" xlink:href="#ac"/><use transform="matrix(0.05,0,0,0.05,50.95,0)" xlink:href="#W"/><use transform="matrix(0.05,0,0,0.05,54.900000000000006,0)" xlink:href="#X"/><use transform="matrix(0.05,0,0,0.05,64.9,0)" xlink:href="#V"/></g><g id="B"><use transform="matrix(0.05,0,0,0.05,0,0)" xlink:href="#aj"/><use transform="matrix(0.05,0,0,0.05,5,0)" xlink:href="#ah"/><use transform="matrix(0.05,0,0,0.05,10.95,0)" xlink:href="#U"/><use transform="matrix(0.05,0,0,0.05,20.95,0)" xlink:href="#aq"/></g><path d="M185-189c-5-48-123-54-124 2 14 75 158 14 163 119 3 78-121 87-175 55-17-10-28-26-33-46l33-7c5 56 141 63 141-1 0-78-155-14-162-118-5-82 145-84 179-34 5 7 8 16 11 25" id="aJ"/><path d="M108 0H70L1-190h34L89-25l56-165h34" id="aK"/><g id="C"><use transform="matrix(0.05,0,0,0.05,0,0)" xlink:href="#aJ"/><use transform="matrix(0.05,0,0,0.05,12,0)" xlink:href="#ae"/><use transform="matrix(0.05,0,0,0.05,22,0)" xlink:href="#aK"/><use transform="matrix(0.05,0,0,0.05,31,0)" xlink:href="#W"/><use transform="matrix(0.05,0,0,0.05,34.95,0)" xlink:href="#X"/><use transform="matrix(0.05,0,0,0.05,44.95,0)" xlink:href="#V"/></g></defs></g></svg>